<?xml version="1.0" encoding="UTF-8"?>
<svg width="34px" height="34px" viewBox="0 0 34 34" version="1.1" xmlns="http://www.w3.org/2000/svg" xmlns:xlink="http://www.w3.org/1999/xlink">
    <!-- Generator: Sketch 49.3 (51167) - http://www.bohemiancoding.com/sketch -->
    <title>bcyy@3x</title>
    <desc>Created with Sketch.</desc>
    <defs></defs>
    <g id="定稿" stroke="none" stroke-width="1" fill="none" fill-rule="evenodd">
        <g id="首页-copy" transform="translate(-278.000000, -593.000000)" fill="#5B91F8" fill-rule="nonzero">
            <g id="Group-7" transform="translate(13.000000, 559.000000)">
                <g id="Group-6" transform="translate(256.000000, 34.000000)">
                    <g id="预约" transform="translate(15.000000, 5.000000)">
                        <path d="M21.1152028,1.23594995 L19.2595398,1.23594995 L19.2595398,1.7422553 C19.2595398,3.11717859 18.1278558,4.23685317 16.738241,4.23685317 C15.3444449,4.23685317 14.2127608,3.11717862 14.2127608,1.7422553 L14.2127608,1.23594995 L8.74564924,1.23594995 L8.74564924,1.7422553 C8.74564924,3.11717859 7.6139652,4.23685317 6.22016908,4.23685317 C4.83052642,4.23685317 3.69887024,3.11717862 3.69887027,1.7422553 L3.69887027,1.23594995 L1.91810837,1.23594995 C0.877967023,1.23594995 0.0208553178,2.0304616 0.0166740077,3.00192367 L6.02810523e-05,22.2052332 C-0.00827446074,23.1808322 0.848781488,23.9793981 1.89310415,23.9876444 L9.45716791,23.9876444 L13.45968,23.9958906 L21.0736128,24 C21.1401513,24 21.2025642,23.9958906 21.2649771,23.9917537 L21.2733119,23.9917537 C22.217785,23.8929638 22.970838,23.1396284 22.9833261,22.22578 L22.9999398,3.01841623 C23.0082467,2.03868031 22.155372,1.24830557 21.1152028,1.23594995 Z M17.5454279,14.9391526 L5.45465585,14.9391526 C4.89293938,14.9391526 4.43533739,14.4904609 4.43533739,13.9306512 C4.43533739,13.3748957 4.89293936,12.9220947 5.45465585,12.9220947 L17.5454279,12.9220947 C18.1070608,12.9220947 18.5647464,13.3748957 18.5647464,13.9306512 C18.5647464,14.4904609 18.1070329,14.9391526 17.5454279,14.9391526 Z M13.3821865,19.7187713 L5.45465585,19.7187713 C4.89293938,19.7187713 4.43533739,19.2700797 4.43533739,18.7102699 C4.43533739,18.1545144 4.89293936,17.7017134 5.45465585,17.7017134 L13.3821865,17.7017134 C13.9438193,17.7017134 14.4015049,18.1545144 14.4015049,18.7102699 C14.4015049,19.2701072 13.9438193,19.7187713 13.3821865,19.7187713 Z M17.5454279,10.1643052 L5.45465585,10.1643052 C4.89293938,10.1643052 4.43533739,9.71561349 4.43533739,9.1557486 C4.43533739,8.60004826 4.89293936,8.1472472 5.45465585,8.14724722 L17.5454279,8.14724722 C18.1070608,8.14724722 18.5647464,8.60004826 18.5647464,9.1557486 C18.5647464,9.71564104 18.1070329,10.1643051 17.5454279,10.1643052 Z M6.22192524,3.00159271 C5.5211107,3.00159271 4.94774234,2.43428137 4.94774234,1.74093149 L4.94774234,1.26066122 C4.94774234,0.567283753 5.52113858,0 6.22192524,0 C6.92273978,0 7.49610814,0.567311335 7.49610814,1.26066122 L7.49610814,1.74090391 C7.49610814,2.43428137 6.92273978,3.00159271 6.22192524,3.00159271 Z M6.22192524,3.00159271 C5.5211107,3.00159271 4.94774234,2.43428137 4.94774234,1.74093149 L4.94774234,1.26066122 C4.94774234,0.567283753 5.52113858,0 6.22192524,0 C6.92273978,0 7.49610814,0.567311335 7.49610814,1.26066122 L7.49610814,1.74090391 C7.49610814,2.43428137 6.92273978,3.00159271 6.22192524,3.00159271 Z M16.7361503,3.00159271 C16.0353358,3.00159271 15.4619674,2.43428137 15.4619674,1.74093149 L15.4619674,1.26066122 C15.4619674,0.567283753 16.0353637,0 16.7361503,0 C17.4369648,0 18.0103332,0.567311335 18.0103332,1.26066122 L18.0103332,1.74090391 C18.0103332,2.43428137 17.4369648,3.00159271 16.7361503,3.00159271 Z" id="Shape"></path>
                    </g>
                </g>
            </g>
        </g>
    </g>
</svg>