<svg xmlns="http://www.w3.org/2000/svg" width="20" height="19" viewBox="0 0 20 19">
  <g fill="#FD9105">
    <path d="M17.5973902 2.67881987L15.4471106.462263773C14.9357667-.154087924 14.184309-.154087924 13.6729651.462263773L12.5352376 1.69486217 2.91143111 11.9239903C2.78625574 12.0430607 2.78625574 12.172736 2.78625574 12.2917013L2.02425704 16.2383472C1.89898031 16.7356286 2.27481048 17.1034446 2.78625574 16.9737692L6.58560684 16.2383472C6.71078221 16.2383472 6.83616029 16.1193819 6.96143701 15.9898115L15.9587585 6.37703506 17.7333094 4.52797997C18.1089369 3.91141827 18.1089369 3.16539121 17.5973902 2.67881987zM6.07416158 15.1247141L3.41243664 15.6221005 3.92388191 12.907948 4.81105598 11.9238853 6.9612343 14.2704318 6.07416158 15.1247141zM7.84850973 13.1566937L5.69833141 10.8101473 12.9213048 3.16539121 15.0713818 5.38205232 7.84850973 13.1566937zM15.9586572 4.64684029L13.6729651 2.31110886 14.5600378 1.32715115 16.8355942 3.67359261 15.9586572 4.64684029zM19.2839949 18L.715003519 18C.321201581 18 0 18.2234637 0 18.4992318 0 18.7757681.321201581 18.9999999.715003519 18.9999999L19.2838949 18.9999999C19.4740316 19.0000929 19.6564044 18.9473411 19.7907575 18.8533886 19.9251106 18.759436 20.000397 18.6320078 19.9999984 18.4992318 20.0000984 18.2235335 19.6788968 18 19.2839949 18z"/>
  </g>
</svg>
