<svg xmlns="http://www.w3.org/2000/svg" width="17" height="19" viewBox="0 0 17 19">
  <g fill="#BBB" stroke="#BBB" stroke-width=".1" transform="translate(1 1)">
    <path d="M13.064767,1.69327689 L11.2164885,1.69327689 L11.2164885,0.364187586 C11.2164885,0.163068738 11.0666749,2.24538204e-08 10.8816695,0 C10.6966641,-2.24538204e-08 10.5468506,0.163068716 10.5468506,0.364187586 L10.5468506,1.69329988 L4.43636727,1.69329988 L4.43636727,0.364187586 C4.43636727,0.163068738 4.2865537,2.24538204e-08 4.1015483,0 C3.91654291,-2.24538204e-08 3.76672934,0.163068716 3.76672932,0.364187586 L3.76672932,1.69329988 L2.09335307,1.69329988 C0.961888568,1.69329988 0,2.79581168 0,4.1061057 L0,14.5282119 C0,15.8820706 0.981101392,17 2.09335307,17 L13.0648093,17 C14.15007,17 15,15.9054613 15,14.5282119 L15,4.10608273 C14.9999577,2.75141985 14.1868471,1.69327689 13.064767,1.69327689 Z M14.3303198,14.5281889 C14.3303198,15.5038209 13.7805876,16.2538176 13.0647882,16.2538176 L2.09333194,16.2538176 C1.35715715,16.2538176 0.669616821,15.4707569 0.669616821,14.5281889 L0.669616821,4.10605976 C0.669616821,3.18198838 1.31845673,2.42121547 2.09333194,2.42121547 L3.76670819,2.42121547 L3.76670819,3.55065647 C3.76670819,3.75177532 3.91652176,3.91484404 4.10152717,3.91484404 C4.28653259,3.91484404 4.43634614,3.75177532 4.43634614,3.55065647 L4.43634614,2.42123844 L10.5468294,2.42123844 L10.5468294,3.55067947 C10.5468294,3.75179831 10.696643,3.91486703 10.8816484,3.91486703 C11.0666538,3.91486703 11.2164674,3.75179831 11.2164674,3.55067947 L11.2164674,2.42123844 L13.064767,2.42123844 C13.8048732,2.42123844 14.3302986,3.16663963 14.3302986,4.10608273 L14.3302986,14.5281889 L14.3303198,14.5281889 Z"/>
    <path d="M2.8125,7 L12.1875,7 L12.1875,7.6975994 L2.8125,7.6975994 L2.8125,7 Z M2.8125,10.3024006 L8.69318572,10.3024006 L8.69318572,11 L2.8125,11 L2.8125,10.3024006 Z"/>
  </g>
</svg>
