<?xml version="1.0" encoding="UTF-8"?>
<svg width="16px" height="16px" viewBox="0 0 16 16" version="1.1" xmlns="http://www.w3.org/2000/svg" xmlns:xlink="http://www.w3.org/1999/xlink">
    <!-- Generator: Sketch 49.3 (51167) - http://www.bohemiancoding.com/sketch -->
    <title>ck@3x</title>
    <desc>Created with Sketch.</desc>
    <defs></defs>
    <g id="定稿" stroke="none" stroke-width="1" fill="none" fill-rule="evenodd">
        <g id="首页-copy" transform="translate(-31.000000, -349.000000)" fill="#B0B0B0" fill-rule="nonzero">
            <g id="Group" transform="translate(13.000000, 174.000000)">
                <g id="Group-15" transform="translate(18.000000, 175.000000)">
                    <g id="Group-25">
                        <g id="我的-2">
                            <path d="M6.53950988,9.180759 L9.46049013,9.180759 C11.9619874,9.180759 14,11.1481298 14,13.5720055 L14,13.8547069 C14,14.6169909 13.1140989,14.7756499 11.0797531,14.8391134 C10.6008678,14.853537 10.2055858,14.8571429 9.46049013,14.8571429 L6.53950988,14.8571429 C2.84336614,14.8571429 2,14.7835828 2,13.8547069 L2,13.5720055 C2,11.1488509 4.03874595,9.180759 6.53950988,9.180759 Z M13.1111654,13.5720055 C13.1111654,11.6349242 11.4750351,10.0548255 9.46049013,10.0548255 L6.53950988,10.0548255 C4.52496487,10.0548255 2.88810121,11.6349242 2.88810121,13.5720055 L2.88810121,13.732828 C2.91230215,13.7429244 2.94236999,13.7544633 2.97757135,13.7660021 C3.17557905,13.8287445 3.48212431,13.8785057 3.88253988,13.9138434 C4.5300984,13.9708164 5.17765691,13.9830764 6.53950988,13.9830764 L9.45975677,13.9830764 C10.1960521,13.9830764 10.5840005,13.9794705 11.051152,13.965047 C11.7449123,13.9434117 12.3000672,13.900141 12.6975494,13.8280233 C12.8794231,13.7962916 13.0202286,13.7587904 13.1104321,13.720568 L13.1104321,13.5720055 L13.1111654,13.5720055 Z M2.872188,13.7438031 C2.85942831,13.7300244 2.84614443,13.7167406 2.8323657,13.7039809 L2.872188,13.7438031 Z M7.85442767,2 C9.79270304,2 11.3723645,3.52384692 11.3723645,5.4025129 C11.3723645,7.28190006 9.79270304,8.80646817 7.85442767,8.80646815 C5.9161523,8.80646814 4.33649086,7.28117888 4.33649086,5.4025129 C4.33649086,3.52456809 5.9161523,2 7.85442767,2 Z M7.85442767,7.9316805 C9.30575078,7.9316805 10.4835299,6.79510561 10.4835299,5.4025129 C10.4835299,4.01064136 9.30575078,2.87406649 7.85442767,2.87406647 C6.40383793,2.87406647 5.22532542,4.01064136 5.22532544,5.4025129 C5.22532544,6.79438444 6.40383793,7.9316805 7.85442767,7.9316805 Z" id="Shape"></path>
                        </g>
                    </g>
                </g>
            </g>
        </g>
    </g>
</svg>