<?xml version="1.0" encoding="UTF-8"?>
<svg width="18px" height="18px" viewBox="0 0 18 18" version="1.1" xmlns="http://www.w3.org/2000/svg" xmlns:xlink="http://www.w3.org/1999/xlink">
    <!-- Generator: Sketch 49.3 (51167) - http://www.bohemiancoding.com/sketch -->
    <title>dh@3x</title>
    <desc>Created with Sketch.</desc>
    <defs></defs>
    <g id="定稿" stroke="none" stroke-width="1" fill="none" fill-rule="evenodd">
        <g id="首页-copy" transform="translate(-62.000000, -277.000000)" fill="#666666" fill-rule="nonzero">
            <g id="Group" transform="translate(13.000000, 174.000000)">
                <g id="Group-10">
                    <g id="电话" transform="translate(49.000000, 103.000000)">
                        <path d="M14.8878325,13.6751134 L14.3243517,14.236787 C14.0942084,14.466416 13.8082025,14.6496858 13.4723414,14.7825914 C13.1031658,14.9295693 12.6884141,14.9999997 12.2452167,14.9999997 C10.5434318,15.0007815 7.85427989,13.4140753 6.07224651,11.637118 C3.82563361,9.39678785 2.47954212,6.31411884 3.19094279,4.53103057 C3.29490503,4.26993761 3.43923149,4.0378946 3.61098862,3.83405117 L3.61052231,3.8331322 L3.64703253,3.77419564 C3.6632852,3.74755965 3.6822535,3.72347481 3.70364943,3.70211939 L4.29493121,3.11300062 C4.44478496,2.96233313 4.688287,2.96233313 4.83809959,3.11300062 L5.10432795,3.37830431 L7.42357727,5.69149249 C7.57340358,5.8403632 7.57340358,6.08287132 7.42311095,6.23259243 L6.80302697,6.85177611 L6.38134901,7.2723695 C6.38134901,7.2723695 6.16068301,8.68263633 7.73148652,10.2488375 C9.30223518,11.8143391 10.7101005,11.6010044 10.7101005,11.6010044 L11.7582812,10.5554804 C11.9081076,10.4057594 12.1519388,10.4057594 12.3013262,10.5554804 L14.8873662,13.1331494 C15.0374668,13.2830076 15.0374668,13.5253649 14.8878325,13.6751134 Z" id="Shape"></path>
                    </g>
                </g>
            </g>
        </g>
    </g>
</svg>