<svg xmlns="http://www.w3.org/2000/svg" width="18" height="18" viewBox="0 0 18 18">
  <path fill="#666" d="M12.8181614,10.6363266 C11.9544063,10.6387002 11.2091211,11.1435218 10.8589224,11.8738087 L7.36141597,9.89016881 C7.29752515,9.8558146 7.22222976,9.83403071 7.14224334,9.83015427 C7.30199147,9.58848094 7.36356486,9.30086623 7.36362104,8.99886937 C7.36362104,8.88653699 7.34671083,8.77690126 7.32981466,8.668347 C7.34017989,8.66289752 7.35162659,8.6612402 7.36145811,8.65525701 L11.104907,6.51653162 C11.5047829,7.0327718 12.1243231,7.36228293 12.8208861,7.36363126 C14.021469,7.36363126 15,6.38509796 15,5.18181563 C15,3.9785333 14.021469,3 12.8181895,3 C11.61491,3 10.636379,3.9785333 10.636379,5.18181563 C10.636379,5.29636713 10.6532892,5.40600286 10.6701853,5.51618635 C10.6598201,5.52108807 10.6483734,5.52054031 10.6385419,5.5265516 L6.89509302,7.66527699 C6.49521708,7.1490368 5.87567694,6.81952567 5.17911388,6.81817735 C3.97853101,6.81817735 3,7.79671065 3,8.99999298 C3,10.2032753 3.97853101,11.1818086 5.18181052,11.1818086 C5.73848513,11.1798704 6.24534203,10.9680007 6.62759145,10.6212563 C6.68242324,10.7393331 6.77850526,10.8272692 6.89528965,10.87491 L10.6385419,13.0189023 C10.6445391,13.0227226 10.6510841,13.0232563 10.6576431,13.0265428 C10.7640061,14.1305547 11.6863711,15 12.8181754,15 C14.0214549,15 14.999986,14.0214667 14.999986,12.8181844 C14.999986,11.614902 14.0214549,10.6363687 12.8181754,10.6363687 L12.8181614,10.6363266 Z"/>
</svg>
