<svg xmlns="http://www.w3.org/2000/svg" width="36" height="36" viewBox="0 0 36 36">
  <path fill="#EFEFEF" fill-rule="evenodd" d="M19.7580736,18.34386 L26.3341666,11.767767 C26.5294288,11.5725048 26.5294288,11.2559223 26.3341666,11.0606602 L25.6270599,10.3535534 C25.4317977,10.1582912 25.1152152,10.1582912 24.9199531,10.3535534 L18.34386,16.9296465 L11.767767,10.3535534 C11.5725048,10.1582912 11.2559223,10.1582912 11.0606602,10.3535534 L10.3535534,11.0606602 C10.1582912,11.2559223 10.1582912,11.5725048 10.3535534,11.767767 L16.9296465,18.34386 L10.3535534,24.9199531 C10.1582912,25.1152152 10.1582912,25.4317977 10.3535534,25.6270599 L11.0606602,26.3341666 C11.2559223,26.5294288 11.5725048,26.5294288 11.767767,26.3341666 L18.34386,19.7580736 L24.9199531,26.3341666 C25.1152152,26.5294288 25.4317977,26.5294288 25.6270599,26.3341666 L26.3341666,25.6270599 C26.5294288,25.4317977 26.5294288,25.1152152 26.3341666,24.9199531 L19.7580736,18.34386 Z M18,36 C8.0588745,36 0,27.9411255 0,18 C0,8.0588745 8.0588745,0 18,0 C27.9411255,0 36,8.0588745 36,18 C36,27.9411255 27.9411255,36 18,36 Z"/>
</svg>
