<svg xmlns="http://www.w3.org/2000/svg" width="13" height="14" viewBox="0 0 13 14">
  <path fill="#848484" fill-rule="evenodd" d="M8.20710678,7 L13.863961,12.6568542 C14.0592232,12.8521164 14.0592232,13.1686989 13.863961,13.363961 C13.6686989,13.5592232 13.3521164,13.5592232 13.1568542,13.363961 L7.5,7.70710678 L1.84314575,13.363961 C1.6478836,13.5592232 1.33130112,13.5592232 1.13603897,13.363961 C0.940776823,13.1686989 0.940776823,12.8521164 1.13603897,12.6568542 L6.79289322,7 L1.13603897,1.34314575 C0.940776823,1.1478836 0.940776823,0.831301115 1.13603897,0.636038969 C1.33130112,0.440776823 1.6478836,0.440776823 1.84314575,0.636038969 L7.5,6.29289322 L13.1568542,0.636038969 C13.3521164,0.440776823 13.6686989,0.440776823 13.863961,0.636038969 C14.0592232,0.831301115 14.0592232,1.1478836 13.863961,1.34314575 L8.20710678,7 Z" transform="translate(-1)"/>
</svg>
