<?xml version="1.0" encoding="UTF-8"?>
<svg width="22px" height="22px" viewBox="0 0 22 22" version="1.1" xmlns="http://www.w3.org/2000/svg" xmlns:xlink="http://www.w3.org/1999/xlink">
    <!-- Generator: Sketch 49.3 (51167) - http://www.bohemiancoding.com/sketch -->
    <title>gb@3x</title>
    <desc>Created with Sketch.</desc>
    <defs></defs>
    <g id="定稿" stroke="none" stroke-width="1" fill="none" fill-rule="evenodd">
        <g id="我的" transform="translate(-231.000000, -20.000000)">
            <g id="Group-5">
                <g id="gb" transform="translate(231.000000, 20.000000)">
                    <path d="M11.5792627,11 L16.2133641,6.36589857 C16.3733231,6.2059396 16.3733231,5.94659487 16.2133641,5.7866359 C16.0534051,5.62667692 15.7940604,5.62667692 15.6341014,5.7866359 L11,10.4207373 L6.36589857,5.7866359 C6.2059396,5.62667692 5.94659487,5.62667692 5.7866359,5.7866359 C5.62667692,5.94659487 5.62667692,6.2059396 5.7866359,6.36589857 L10.4207373,11 L5.7866359,15.6341014 C5.62667692,15.7940604 5.62667692,16.0534051 5.7866359,16.2133641 C5.94659487,16.3733231 6.2059396,16.3733231 6.36589857,16.2133641 L11,11.5792627 L15.6341014,16.2133641 C15.7940604,16.3733231 16.0534051,16.3733231 16.2133641,16.2133641 C16.3733231,16.0534051 16.3733231,15.7940604 16.2133641,15.6341014 L11.5792627,11 Z M11,22 C4.92486775,22 0,17.0751322 0,11 C0,4.92486775 4.92486775,0 11,0 C17.0751322,0 22,4.92486775 22,11 C22,17.0751322 17.0751322,22 11,22 Z" id="Combined-Shape" fill="#000000" opacity="0.300000012"></path>
                    <g id="Group-11" transform="translate(5.000000, 5.000000)"></g>
                </g>
            </g>
        </g>
    </g>
</svg>