<?xml version="1.0" encoding="UTF-8"?>
<svg width="17px" height="17px" viewBox="0 0 17 17" version="1.1" xmlns="http://www.w3.org/2000/svg" xmlns:xlink="http://www.w3.org/1999/xlink">
    <!-- Generator: Sketch 49.3 (51167) - http://www.bohemiancoding.com/sketch -->
    <title>Group 18@3x</title>
    <desc>Created with Sketch.</desc>
    <defs></defs>
    <g id="定稿" stroke="none" stroke-width="1" fill="none" fill-rule="evenodd">
        <g id="包车接送机" transform="translate(-14.000000, -524.000000)" stroke="#FC3C3C">
            <g id="Group-20" transform="translate(15.000000, 523.000000)">
                <g id="Group-18" transform="translate(0.000000, 2.000000)">
                    <circle id="Oval" cx="7.5" cy="7.5" r="7.5"></circle>
                    <path d="M7.5,6.5 L7.5,9 L8,8.5 L7,8.5 L7.5,9 L7.5,6.5 Z M7.5,6.5 L7.5,4 L7,4.5 L8,4.5 L7.5,4 L7.5,6.5 Z M7.5,10.5 L8,10.5 L7.5,10 L7.5,10.5 L7.5,10 L7,10.5 L7.5,10.5 L7,10.5 L7.5,11 L7.5,10.5 L7.5,11 L8,10.5 L7.5,10.5 Z" id="Combined-Shape"></path>
                </g>
            </g>
        </g>
    </g>
</svg>