<svg xmlns="http://www.w3.org/2000/svg" width="13" height="13" viewBox="0 0 13 13">
  <path fill="#FD9105" stroke="#FD9105" stroke-width=".1" d="M6.88089462,6.08944037 C7.86069282,5.53833561 8.52499057,4.470567 8.52499057,3.24360972 C8.52499057,1.4522303 7.10911781,0 5.36249036,0 C3.61589572,0 2.20000655,1.4522303 2.20000655,3.24360972 C2.20000655,5.03497238 3.61589572,6.48720268 5.36249036,6.48720268 C5.40029793,6.48720268 5.43787585,6.48628136 5.47535538,6.4849245 C5.48303171,6.48633161 5.49116731,6.48720268 5.50004101,6.48720268 C8.05307673,6.48720268 10.253477,8.34622431 10.4374464,10.4359464 L0.560978946,10.4359464 C0.668677202,9.04961616 1.56556119,7.80264093 2.95694516,7.08824341 C3.09274074,7.01854077 3.14770523,6.84906673 3.07971722,6.70979546 C3.01174563,6.57052421 2.84652411,6.51410545 2.71072851,6.58384159 C1.04824546,7.43746012 0,8.99452077 0,10.7179732 L0,11 L11,11 L11,10.7179732 C11,8.59159901 9.20565794,6.65558789 6.88089462,6.08944037 Z M5.36249036,5.92308207 C3.91963563,5.92308207 2.7500123,4.7234296 2.7500123,3.24360972 C2.7500123,1.76372283 3.91963563,0.56412061 5.36249036,0.56412061 C6.80534509,0.56412061 7.97503404,1.76372285 7.97503404,3.24360972 C7.97503404,4.7234296 6.8053451,5.92308207 5.36249036,5.92308207 Z" transform="translate(1 1)"/>
</svg>
