<svg xmlns="http://www.w3.org/2000/svg" width="193" height="116" viewBox="0 0 193 116">
  <g fill="none" fill-rule="evenodd">
    <path fill="#CCCBC7" d="M2.68754877,72.7058993 L0.284080788,72.2702636 C0.0958344828,72.2361704 -0.054382266,72.4227361 0.0188246305,72.5979374 L0.892553695,74.6880419 C0.960056158,74.8490377 1.17302167,74.8859721 1.29186404,74.7581224 L2.82160296,73.1036537 C2.94995271,72.9644397 2.8738936,72.7399926 2.68754877,72.7058993"/>
    <path fill="#DADADA" d="M10.1788961 29.7568564L8.42953645 31.2020306C8.29453153 31.3137807 8.32115222 31.5268634 8.47992562 31.6026261L10.5164084 32.5733362C10.6865906 32.6547811 10.8805414 32.5174611 10.8586744 32.3299484L10.5706005 29.9131171C10.5487335 29.7246573 10.3253099 29.6356361 10.1788961 29.7568564M110.484514 9.44922318L107.771105 10.8091643C107.561942 10.9142851 107.531519 11.1993424 107.715011 11.3451857L110.074745 13.2193663C110.272499 13.376574 110.567228 13.2544066 110.5948 13.0034425L110.948474 9.76932074C110.976046 9.51740964 110.71174 9.33557907 110.484514 9.44922318M28.9059808 103.325409C27.2678576 103.325409 25.9349217 101.997667 25.9349217 100.365927 25.9349217 98.7341874 27.2678576 97.4064454 28.9059808 97.4064454 30.5441039 97.4064454 31.8770399 98.7341874 31.8770399 100.365927 31.8770399 101.997667 30.5441039 103.325409 28.9059808 103.325409M28.9059808 95.512377C26.2191926 95.512377 24.0334438 97.6896087 24.0334438 100.365927 24.0334438 103.042246 26.2191926 105.219478 28.9059808 105.219478 31.592769 105.219478 33.7785177 103.042246 33.7785177 100.365927 33.7785177 97.6896087 31.592769 95.512377 28.9059808 95.512377M36.7495768 29.0909967C35.3738576 29.0909967 34.2538872 27.9753904 34.2538872 26.6050319 34.2538872 25.2346734 35.3738576 24.1190671 36.7495768 24.1190671 38.1252961 24.1190671 39.2452665 25.2346734 39.2452665 26.6050319 39.2452665 27.9753904 38.1252961 29.0909967 36.7495768 29.0909967M36.7495768 22.6985158C34.5875966 22.6985158 32.8277788 24.4514761 32.8277788 26.6050319 32.8277788 28.7585877 34.5875966 30.511548 36.7495768 30.511548 38.9115571 30.511548 40.6713749 28.7585877 40.6713749 26.6050319 40.6713749 24.4514761 38.9115571 22.6985158 36.7495768 22.6985158M154.167734 55.2634234C152.792015 55.2634234 151.672045 54.1478171 151.672045 52.7774586 151.672045 51.4071001 152.792015 50.2914938 154.167734 50.2914938 155.543454 50.2914938 156.663424 51.4071001 156.663424 52.7774586 156.663424 54.1478171 155.543454 55.2634234 154.167734 55.2634234M154.167734 48.8709425C152.005754 48.8709425 150.245936 50.6239028 150.245936 52.7774586 150.245936 54.9310143 152.005754 56.6839747 154.167734 56.6839747 156.329715 56.6839747 158.089533 54.9310143 158.089533 52.7774586 158.089533 50.6239028 156.329715 48.8709425 154.167734 48.8709425"/>
    <path fill="#E9E9E9" d="M163.819921 105.278667C162.85302 105.278667 162.066759 104.49547 162.066759 103.532336 162.066759 102.570149 162.85302 101.786005 163.819921 101.786005 164.786823 101.786005 165.573084 102.570149 165.573084 103.532336 165.573084 104.49547 164.786823 105.278667 163.819921 105.278667M163.819921 100.366401C162.066759 100.366401 160.64065 101.786005 160.64065 103.532336 160.64065 105.278667 162.066759 106.699219 163.819921 106.699219 165.573084 106.699219 166.999192 105.278667 166.999192 103.532336 166.999192 101.786005 165.573084 100.366401 163.819921 100.366401M136.606446 5.37858606C135.639544 5.37858606 134.853283 4.59538877 134.853283 3.63225499 134.853283 2.67006823 135.639544 1.88592391 136.606446 1.88592391 137.573347 1.88592391 138.359608 2.67006823 138.359608 3.63225499 138.359608 4.59538877 137.573347 5.37858606 136.606446 5.37858606M139.785717 3.63225499C139.785717 1.88592391 138.359608.466319642 136.606446.466319642 134.853283.466319642 133.427175 1.88592391 133.427175 3.63225499 133.427175 5.37858606 134.853283 6.79913736 136.606446 6.79913736 138.359608 6.79913736 139.785717 5.37858606 139.785717 3.63225499M100.659483 108.850217L98.8179015 108.850217 98.8179015 107.015812C98.8179015 106.492102 98.3919704 106.067831 97.8662118 106.067831 97.3414039 106.067831 96.9154729 106.492102 96.9154729 107.015812L96.9154729 108.850217 95.0738916 108.850217C94.5490837 108.850217 94.1231527 109.274489 94.1231527 109.797252 94.1231527 110.320014 94.5490837 110.744286 95.0738916 110.744286L96.9154729 110.744286 96.9154729 112.579638C96.9154729 113.102401 97.3414039 113.525725 97.8662118 113.525725 98.3919704 113.525725 98.8179015 113.102401 98.8179015 112.579638L98.8179015 110.744286 100.659483 110.744286C101.184291 110.744286 101.610222 110.320014 101.610222 109.797252 101.610222 109.274489 101.184291 108.850217 100.659483 108.850217M34.6698355 59.7964026L32.8282542 59.7964026 32.8282542 57.9619973C32.8282542 57.4382874 32.4023232 57.0140161 31.8765645 57.0140161 31.3517567 57.0140161 30.9258256 57.4382874 30.9258256 57.9619973L30.9258256 59.7964026 29.0842443 59.7964026C28.5594365 59.7964026 28.1335054 60.2206739 28.1335054 60.7434368 28.1335054 61.2661997 28.5594365 61.690471 29.0842443 61.690471L30.9258256 61.690471 30.9258256 63.5258233C30.9258256 64.0485861 31.3517567 64.4719104 31.8765645 64.4719104 32.4023232 64.4719104 32.8282542 64.0485861 32.8282542 63.5258233L32.8282542 61.690471 34.6698355 61.690471C35.1946433 61.690471 35.6205744 61.2661997 35.6205744 60.7434368 35.6205744 60.2206739 35.1946433 59.7964026 34.6698355 59.7964026M166.612717 23.1720329L164.771135 23.1720329 164.771135 21.3376277C164.771135 20.8139177 164.345204 20.3896464 163.819446 20.3896464 163.294638 20.3896464 162.868707 20.8139177 162.868707 21.3376277L162.868707 23.1720329 161.027126 23.1720329C160.501367 23.1720329 160.076387 23.5963042 160.076387 24.1190671 160.076387 24.64183 160.501367 25.0661013 161.027126 25.0661013L162.868707 25.0661013 162.868707 26.9014536C162.868707 27.4242165 163.294638 27.8475408 163.819446 27.8475408 164.345204 27.8475408 164.771135 27.4242165 164.771135 26.9014536L164.771135 25.0661013 166.612717 25.0661013C167.138475 25.0661013 167.563456 24.64183 167.563456 24.1190671 167.563456 23.5963042 167.138475 23.1720329 166.612717 23.1720329"/>
    <path fill="#CCCBC7" d="M191.106318 48.2932516L189.264737 48.2932516 189.264737 46.4588464C189.264737 45.9351364 188.838806 45.5108651 188.313047 45.5108651 187.788239 45.5108651 187.362308 45.9351364 187.362308 46.4588464L187.362308 48.2932516 185.520727 48.2932516C184.994968 48.2932516 184.569988 48.7175229 184.569988 49.2402858 184.569988 49.7630487 184.994968 50.18732 185.520727 50.18732L187.362308 50.18732 187.362308 52.0226723C187.362308 52.5454352 187.788239 52.9687595 188.313047 52.9687595 188.838806 52.9687595 189.264737 52.5454352 189.264737 52.0226723L189.264737 50.18732 191.106318 50.18732C191.632077 50.18732 192.057057 49.7630487 192.057057 49.2402858 192.057057 48.7175229 191.632077 48.2932516 191.106318 48.2932516M42.248936 76.2068954L41.32767 76.2068954 41.32767 75.2892192C41.32767 75.0278378 41.1156552 74.8157021 40.8523005 74.8157021 40.5898966 74.8157021 40.376931 75.0278378 40.376931 75.2892192L40.376931 76.2068954 39.455665 76.2068954C39.1932611 76.2068954 38.9802956 76.419031 38.9802956 76.6804125 38.9802956 76.9417939 39.1932611 77.1539296 39.455665 77.1539296L40.376931 77.1539296 40.376931 78.0716057C40.376931 78.3329872 40.5898966 78.5451228 40.8523005 78.5451228 41.1156552 78.5451228 41.32767 78.3329872 41.32767 78.0716057L41.32767 77.1539296 42.248936 77.1539296C42.5113399 77.1539296 42.7243054 76.9417939 42.7243054 76.6804125 42.7243054 76.419031 42.5113399 76.2068954 42.248936 76.2068954"/>
    <path fill="#C1C0C0" d="M174.141618,83.398389 L173.220352,83.398389 L173.220352,82.4807129 C173.220352,82.2193314 173.008337,82.0071958 172.744983,82.0071958 C172.482579,82.0071958 172.269613,82.2193314 172.269613,82.4807129 L172.269613,83.398389 L171.348347,83.398389 C171.085943,83.398389 170.872978,83.6105247 170.872978,83.8719061 C170.872978,84.1332875 171.085943,84.3454232 171.348347,84.3454232 L172.269613,84.3454232 L172.269613,85.2630994 C172.269613,85.5244808 172.482579,85.7366165 172.744983,85.7366165 C173.008337,85.7366165 173.220352,85.5244808 173.220352,85.2630994 L173.220352,84.3454232 L174.141618,84.3454232 C174.404022,84.3454232 174.616988,84.1332875 174.616988,83.8719061 C174.616988,83.6105247 174.404022,83.398389 174.141618,83.398389"/>
    <path fill="#B4B3B3" d="M135.636692,111.651734 L134.715426,111.651734 L134.715426,110.734058 C134.715426,110.472676 134.503411,110.260541 134.240057,110.260541 C133.977653,110.260541 133.764687,110.472676 133.764687,110.734058 L133.764687,111.651734 L132.843421,111.651734 C132.581017,111.651734 132.368052,111.86387 132.368052,112.125251 C132.368052,112.386632 132.581017,112.598768 132.843421,112.598768 L133.764687,112.598768 L133.764687,113.516444 C133.764687,113.777826 133.977653,113.989961 134.240057,113.989961 C134.503411,113.989961 134.715426,113.777826 134.715426,113.516444 L134.715426,112.598768 L135.636692,112.598768 C135.899096,112.598768 136.112062,112.386632 136.112062,112.125251 C136.112062,111.86387 135.899096,111.651734 135.636692,111.651734"/>
    <path fill="#DADADA" d="M58.7098394 114.963607L58.5843419 114.232497C58.5453616 114.007103 58.62047 113.77792 58.783997 113.617872L59.3173616 113.099844C59.730933 112.698301 59.5027557 111.998443 58.9313616 111.916051L58.1945389 111.809036C57.9673123 111.776837 57.7714601 111.634782 57.669731 111.429276L57.3398246 110.764458C57.0840759 110.248324 56.3453517 110.248324 56.0905537 110.764458L55.7606473 111.429276C55.6589182 111.634782 55.463066 111.776837 55.2358394 111.809036L54.4990167 111.916051C53.9266719 111.998443 53.6984946 112.698301 54.112066 113.099844L54.6454305 113.617872C54.8099084 113.77792 54.8850167 114.007103 54.8460365 114.232497L54.7205389 114.963607C54.6226128 115.530881 55.2206276 115.963675 55.7311744 115.695665L56.3909872 115.349997C56.5934946 115.243929 56.835933 115.243929 57.0393911 115.349997L57.6982532 115.695665C58.2097507 115.963675 58.8077655 115.530881 58.7098394 114.963607M82.8123069 1.07497853L82.2970064 1.00016282C82.1391837.977434002 82.0013266.877995411 81.9309719.734993246L81.6999424.269999452C81.5221542-.089873546 81.005903-.089873546 80.827164.269999452L80.5961345.734993246C80.5257798.877995411 80.3888734.977434002 80.2301 1.00016282L79.7147995 1.07497853C79.3154892 1.13274761 79.155765 1.62141726 79.4447897 1.90268642L79.8174793 2.26445349C79.9325187 2.37620352 79.9848094 2.5362523 79.9572379 2.69345998L79.86977 3.20485845C79.8013167 3.60071875 80.2186911 3.90282266 80.576169 3.71625692L81.0372773 3.4747632C81.1789374 3.40089453 81.348169 3.40089453 81.4898291 3.4747632L81.9509374 3.71625692C82.3084153 3.90282266 82.7257897 3.60071875 82.6573365 3.20485845L82.5698685 2.69345998C82.542297 2.5362523 82.5945877 2.37620352 82.7096271 2.26445349L83.0823167 1.90268642C83.3713414 1.62141726 83.2116172 1.13274761 82.8123069 1.07497853"/>
    <path fill="#E9E9E9" d="M140.485909,97.3701057 L139.928776,97.4136692 C139.756692,97.4269277 139.589362,97.3559002 139.480978,97.2223683 L139.129204,96.7905207 C138.856342,96.4552706 138.315372,96.577438 138.214594,96.9969742 L138.084342,97.5386778 C138.043461,97.7053558 137.923667,97.8417287 137.762993,97.9032859 L137.241988,98.1031101 C136.836973,98.2574767 136.786584,98.8077036 137.156421,99.0330977 L137.632741,99.3238372 C137.779155,99.4138055 137.872328,99.5700661 137.881835,99.7405323 L137.911308,100.296441 C137.934126,100.728289 138.443722,100.946107 138.773628,100.665785 L139.198608,100.304018 C139.32981,100.192268 139.506648,100.152492 139.673027,100.196056 L140.213047,100.340005 C140.632323,100.451755 140.997406,100.036007 140.831978,99.6373056 L140.617111,99.123066 C140.55151,98.9649113 140.568623,98.7840277 140.661796,98.6400785 L140.966032,98.1731907 C141.201815,97.8104766 140.918495,97.3360124 140.485909,97.3701057"/>
    <g transform="translate(44.538 28.55)">
      <path fill="#989898" d="M82.4128797,65.7580596 L19.6096632,65.7580596 C15.6134212,65.7580596 12.3621872,62.5336908 12.3621872,58.57047 L12.3621872,18.6653459 C12.3621872,14.7013341 15.6134212,11.4769652 19.6096632,11.4769652 L82.4128797,11.4769652 C86.4091217,11.4769652 89.6603557,14.7013341 89.6603557,18.6653459 L89.6603557,58.57047 C89.6603557,62.5336908 86.4091217,65.7580596 82.4128797,65.7580596"/>
      <path fill="#FEFEFE" d="M19.6094239,13.0590102 C16.4929933,13.0590102 13.9572541,15.5737964 13.9572541,18.6652668 L13.9572541,58.5703909 C13.9572541,61.6610703 16.4929933,64.1758565 19.6094239,64.1758565 L82.4126404,64.1758565 C85.5298687,64.1758565 88.0648103,61.6610703 88.0648103,58.5703909 L88.0648103,18.6652668 C88.0648103,15.5737964 85.5298687,13.0590102 82.4126404,13.0590102 L19.6094239,13.0590102 Z"/>
      <path fill="#F9F9F9" d="M88.0650496,18.6651877 C88.0650496,18.655695 88.0634542,18.6477843 88.0634542,18.6382916 C87.5601351,17.2389029 86.433849,15.9296952 83.9507549,15.9296952 L24.0533886,15.9296952 C20.2094984,15.9296952 17.0930677,19.0535992 17.0930677,22.9084444 L17.0930677,62.0731345 C17.0930677,62.7384176 17.3275777,63.3522818 17.7128442,63.8443224 C18.3070957,64.0555359 18.9436229,64.1757774 19.6096632,64.1757774 L82.4128797,64.1757774 C85.5293104,64.1757774 88.0650496,61.6617822 88.0650496,58.5703118 L88.0650496,18.6651877 Z"/>
      <path fill="#989898" d="M50.83164,6.70962993 C48.9659294,6.70962993 47.4487932,5.20502994 47.4487932,3.35552692 C47.4487932,1.50523283 48.9659294,0.000632849624 50.83164,0.000632849624 C52.6965529,0.000632849624 54.2136891,1.50523283 54.2136891,3.35552692 C54.2136891,5.20502994 52.6965529,6.70962993 50.83164,6.70962993"/>
      <path fill="#FEFEFE" d="M50.83164,1.58236138 C49.8465384,1.58236138 49.0440994,2.37737872 49.0440994,3.35513139 C49.0440994,4.33288406 49.8465384,5.12711033 50.83164,5.12711033 C51.8167416,5.12711033 52.6183829,4.33288406 52.6183829,3.35513139 C52.6183829,2.37737872 51.8167416,1.58236138 50.83164,1.58236138"/>
      <path fill="#989898" d="M29.5317499 13.0590102C29.2318323 13.0590102 28.9446772 12.8913051 28.8090762 12.6041495 28.6216277 12.2094096 28.7931231 11.7379366 29.1919496 11.552037L47.9072842 2.83690665C48.3053131 2.65021601 48.7823097 2.82266754 48.9681628 3.21740749 49.1556113 3.61214744 48.9841159 4.08282935 48.5852894 4.26951999L29.8699548 12.9838593C29.7606763 13.0352783 29.6450166 13.0590102 29.5317499 13.0590102M71.4506535 13.0590102C71.3326008 13.0590102 71.2121552 13.0336962 71.0996861 12.9775308L53.2466145 4.26240043C52.8509786 4.07017236 52.689055 3.59553514 52.8828847 3.20395943 53.0775121 2.81238373 53.5569016 2.65021601 53.9509422 2.84323515L71.8032161 11.5591566C72.1988521 11.7513847 72.3615733 12.2252308 72.1669459 12.6168065 72.028952 12.8968425 71.7449875 13.0590102 71.4506535 13.0590102"/>
      <path fill="#FEFEFE" d="M20.882239,19.0220358 L6.39526346,19.0220358 C3.19348393,19.0220358 0.59792076,21.5961516 0.59792076,24.7722657 C0.59792076,27.9467976 3.19348393,30.5209135 6.39526346,30.5209135 L11.9820257,30.5209135 C12.0027647,30.5588844 12.0163248,30.5976465 12.0426474,30.6340353 L13.7942936,32.9937734 C14.1492492,33.4731569 14.8663393,33.4850229 15.2380457,33.0190873 L17.1244952,30.6593493 C17.159592,30.6150498 17.1795333,30.5675861 17.2050582,30.5209135 L20.882239,30.5209135 C24.0840185,30.5209135 26.6795817,27.9467976 26.6795817,24.7722657 C26.6795817,21.5961516 24.0840185,19.0220358 20.882239,19.0220358"/>
      <path fill="#989898" d="M14.5274963,33.9541227 L14.5003761,33.9541227 C14.0265702,33.945421 13.5934445,33.7239236 13.3126706,33.345796 L11.6567428,31.11421 L6.39542299,31.11421 C2.86899865,31.11421 -0.000159530619,28.2687599 -0.000159530619,24.7722657 C-0.000159530619,21.2741894 2.86899865,18.4287393 6.39542299,18.4287393 L20.8823985,18.4287393 C24.4088228,18.4287393 27.2771834,21.2741894 27.2771834,24.7722657 C27.2771834,28.2687599 24.4088228,31.11421 20.8823985,31.11421 L17.524279,31.11421 L15.7072252,33.3885133 C15.4184748,33.7492376 14.9901351,33.9541227 14.5274963,33.9541227"/>
      <path fill="#FEFEFE" d="M6.39518369,19.6153323 C3.52841847,19.6153323 1.19608082,21.9283977 1.19608082,24.7722657 C1.19608082,27.6145516 3.52841847,29.9276169 6.39518369,29.9276169 L12.3400922,29.9276169 L12.5482797,30.3184016 L14.2767939,32.6425418 C14.3573569,32.7517084 14.4403128,32.7564547 14.5264594,32.7675296 C14.5854857,32.7675296 14.6883829,32.7517084 14.7689459,32.6512435 L16.6553955,30.2907144 L16.8260932,29.9829913 L17.2057761,29.9276169 L20.8821592,29.9276169 C23.7489244,29.9276169 26.0812621,27.6145516 26.0812621,24.7722657 C26.0812621,21.9283977 23.7489244,19.6153323 20.8821592,19.6153323 L6.39518369,19.6153323 Z"/>
      <path fill="#F9F9F9" d="M20.882239,19.6153323 L7.18015411,19.6153323 C4.78639717,20.1572098 2.99805893,22.277256 2.99805893,24.814983 L2.99805893,25.1733341 C2.99805893,27.2293043 4.17140663,29.010776 5.88875374,29.9023029 C6.05546324,29.9181242 6.2245657,29.9276169 6.39526346,29.9276169 L12.340172,29.9276169 L12.5483594,30.3184016 L14.2768737,32.6425418 C14.3574367,32.7517084 14.4403926,32.7564547 14.5265391,32.7675296 C14.5847678,32.7675296 14.6884627,32.7517084 14.7690257,32.6512435 L16.6554752,30.2907144 L16.826173,29.9829913 L17.2058559,29.9276169 L20.882239,29.9276169 C23.7490042,29.9276169 26.0813419,27.6145516 26.0813419,24.7722657 C26.0813419,21.9283977 23.7490042,19.6153323 20.882239,19.6153323"/>
      <path fill="#989898" d="M9.31858229 24.8152203C9.31858229 25.6703584 8.62063583 26.3625377 7.75837283 26.3625377 6.89690749 26.3625377 6.19816338 25.6703584 6.19816338 24.8152203 6.19816338 23.9608734 6.89690749 23.2686941 7.75837283 23.2686941 8.62063583 23.2686941 9.31858229 23.9608734 9.31858229 24.8152203M15.1989607 24.8152203C15.1989607 25.6703584 14.5002166 26.3625377 13.6387512 26.3625377 12.7772859 26.3625377 12.0785418 25.6703584 12.0785418 24.8152203 12.0785418 23.9608734 12.7772859 23.2686941 13.6387512 23.2686941 14.5002166 23.2686941 15.1989607 23.9608734 15.1989607 24.8152203M21.0115385 24.8152203C21.0115385 25.6703584 20.3135921 26.3625377 19.4513291 26.3625377 18.5898638 26.3625377 17.8911196 25.6703584 17.8911196 24.8152203 17.8911196 23.9608734 18.5898638 23.2686941 19.4513291 23.2686941 20.3135921 23.2686941 21.0115385 23.9608734 21.0115385 24.8152203M44.1087804 36.9414893C44.3185632 36.9414893 44.4852727 36.8782044 44.6073136 36.7508434 44.7309498 36.6234824 44.7915715 36.4668521 44.7915715 36.2817436L44.7915715 34.1102783C44.7915715 33.9251698 44.8234776 33.800182 44.8880875 33.736106 44.9518997 33.672821 45.0835125 33.6411785 45.2821281 33.6411785L48.2262657 33.6411785C48.1664417 34.1268906 48.0587585 34.5445714 47.9008232 34.8918476 47.7436856 35.2399149 47.5418793 35.5381453 47.2969998 35.7865387 47.0513227 36.0357233 46.756191 36.2469369 46.4124026 36.4209705 46.0678164 36.5950041 45.6737758 36.7508434 45.2302807 36.8900703 44.9957707 36.9707586 44.8266682 37.1099855 44.7221756 37.30696 44.6160878 37.5039344 44.6160878 37.7064463 44.7221756 37.9144956 44.8266682 38.1114701 44.9758293 38.2079796 45.1688614 38.2016511 45.3610958 38.1961137 45.5916175 38.1526053 45.8604266 38.071917 46.3621504 37.931899 46.8327657 37.7357156 47.2706773 37.4809936 47.7085888 37.2254806 48.0946529 36.9161753 48.4264766 36.5514957 48.7598956 36.1860251 49.0310977 35.7612248 49.2416781 35.2747216 49.4514608 34.7874274 49.5854666 34.2431767 49.6444929 33.6411785L52.4474459 33.6411785 52.4474459 36.0729032C52.4474459 36.7453059 52.5790586 37.1970023 52.8414865 37.4279925 53.104712 37.6597736 53.5330517 37.7760598 54.1288986 37.7760598L56.5992302 37.7760598C56.7747139 37.7760598 56.9206844 37.7127748 57.0371418 37.5846227 57.1535991 37.4572618 57.2126255 37.3014225 57.2126255 37.115523 57.2126255 36.9304144 57.1535991 36.7801127 57.0371418 36.6638265 56.9206844 36.5483315 56.7747139 36.490584 56.5992302 36.490584L54.2692855 36.490584C53.9885117 36.490584 53.8489224 36.3284162 53.8489224 36.0032897L53.8489224 33.6411785 57.335464 33.6411785C57.5915107 33.6411785 57.7199328 33.7859429 57.7199328 34.0754716 57.7199328 34.2605801 57.6968009 34.4464797 57.6497394 34.6307971 57.6034755 34.8166967 57.4989829 35.0714187 57.335464 35.3957541 57.1703499 35.7319555 57.100954 35.9890506 57.1248836 36.1686217 57.1480156 36.3489839 57.2939861 36.490584 57.5627952 36.5950041 57.7725779 36.6638265 57.9799677 36.6495874 58.1841669 36.5514957 58.3891638 36.452613 58.572624 36.2002642 58.7361429 35.7960315 58.8765298 35.4471731 58.9650693 35.1410321 58.9985707 34.8744442 59.0344651 34.6086474 59.0520135 34.3420595 59.0520135 34.0754716 59.0520135 32.9173568 58.4792986 32.3382994 57.335464 32.3382994L51.7822032 32.3382994C51.6649482 32.0479796 51.5453002 31.7821828 51.421664 31.5385356 51.3004207 31.2948885 51.1624267 31.0757644 51.0108726 30.8787899 50.8824505 30.7047563 50.7189316 30.5916344 50.520316 30.5394243 50.3217004 30.4880053 50.1406331 30.5077818 49.9771142 30.6003361 49.7784986 30.7284881 49.6732084 30.8700882 49.6620413 31.0259275 49.6500765 31.1825577 49.7091028 31.3542182 49.8375249 31.5385356 49.9188856 31.6666877 49.9946626 31.7932576 50.0648561 31.9206186 50.1350496 32.0479796 50.2108266 32.1872065 50.2921872 32.3382994L44.8266682 32.3382994C44.2770852 32.3382994 43.9077718 32.4427195 43.7139421 32.6507689 43.5217077 32.8588182 43.4251917 33.2187514 43.4251917 33.7281953L43.4251917 36.2817436C43.4251917 36.7223651 43.6533205 36.9414893 44.1087804 36.9414893M59.2178456 45.5937303C59.1069718 45.4552944 58.9235116 45.385681 58.6666673 45.385681L51.7821234 45.385681 51.7821234 40.2255833 56.5640537 40.2255833C56.7977661 40.2255833 56.9732498 40.1646716 57.0897071 40.042848 57.2069621 39.9218155 57.2651908 39.762021 57.2651908 39.5650465 57.2651908 39.125216 57.0314784 38.9053008 56.5640537 38.9053008L45.8077017 38.9053008C45.5628222 38.9053008 45.3905292 38.9662126 45.2908225 39.0872451 45.1919136 39.2090686 45.1424591 39.3744006 45.1424591 39.5824499 45.1424591 39.7794243 45.1919136 39.9360546 45.2908225 40.0515497 45.3905292 40.1678358 45.5628222 40.2255833 45.8077017 40.2255833L50.4324944 40.2255833 50.4324944 45.385681 43.3557161 45.385681C43.0980742 45.385681 42.914614 45.4552944 42.8029425 45.5937303 42.6920687 45.7329572 42.6370307 45.8895875 42.6370307 46.0636211 42.6370307 46.2605956 42.6920687 46.418808 42.8029425 46.5406315 42.914614 46.6624551 43.0980742 46.7233668 43.3557161 46.7233668L58.6666673 46.7233668C58.9235116 46.7233668 59.1069718 46.6624551 59.2178456 46.5406315 59.329517 46.418808 59.3853527 46.2605956 59.3853527 46.0636211 59.3853527 45.8895875 59.329517 45.7329572 59.2178456 45.5937303"/>
      <g transform="translate(79.276 37.85)">
        <path fill="#FEFEFE" d="M1.47721515,11.9690639 C1.141962,11.7845474 1.05313424,11.3294067 1.30815587,11.0455352 C1.573684,10.7503088 2.04170122,10.4115555 2.85165754,10.2421788 C4.46679449,9.90531795 7.01701074,9.65267231 9.05718373,3.673392 C11.0973567,-2.3058883 12.9675153,4.76818981 12.9675153,4.76818981 C12.9675153,4.76818981 13.9025946,9.0631658 18.3229694,9.98953317 C22.2724616,10.8174917 20.0460369,11.914182 19.5273974,12.1384405 C19.4653135,12.1649352 18.9495394,12.3002473 18.7881212,12.3475592 C18.0708132,12.5614091 15.1146637,12.6768502 13.5625658,16.1372439 C11.8624216,19.9269286 11.0973567,22.706977 9.65223419,19.5058525 C8.20711165,16.3056743 7.6970684,13.442357 4.89183053,12.8528505 C2.8249137,12.4185271 2.00445087,12.2586128 1.47721515,11.9690639"/>
        <path fill="#C4A66A" d="M10.8360312,21.3799723 C10.0728766,21.3799723 9.56951931,20.4829383 9.21611856,19.6994529 C8.92480172,19.0541183 8.67073523,18.4229773 8.42813039,17.8202235 C7.47585863,15.4480039 6.78815987,13.7353124 4.79287832,13.317075 L4.4299262,13.2404297 C2.5721844,12.8505795 1.80234384,12.6887728 1.24549887,12.3831378 C1.24454373,12.3831378 1.24454373,12.3831378 1.24454373,12.3821915 C0.954182033,12.2222772 0.754558365,11.9421907 0.699160409,11.6147922 C0.643762453,11.2930712 0.735455621,10.9713501 0.951316622,10.7310056 C1.24072318,10.407392 1.78897192,9.98063853 2.75270533,9.77908975 L2.97716256,9.73367031 C4.56651081,9.41384174 6.74231329,8.97762585 8.60483077,3.52256161 C9.00980893,2.33503244 9.68795632,0.761438022 10.8255247,0.801180034 C12.310763,0.852276906 13.1942649,3.7591212 13.4292286,4.64763904 C13.4702995,4.83120928 14.3681285,8.67672205 18.4217306,9.52739035 C20.1982857,9.89926203 21.0225691,10.3761662 21.0942044,11.0716514 C21.16775,11.7870076 20.3874029,12.2828365 19.7188069,12.5714392 C19.6748706,12.5913102 19.4360863,12.6603856 19.2144945,12.7209449 L18.9250879,12.8013751 C18.8209779,12.832601 18.6757971,12.8619344 18.4971864,12.8969452 C17.442715,13.1070101 15.2497201,13.5422798 13.9994455,16.329898 C13.7740331,16.8314044 13.5648581,17.3158784 13.369055,17.7710191 C12.4005459,20.0164428 11.8160019,21.3714561 10.8446274,21.3799723 L10.8360312,21.3799723 Z"/>
        <path fill="#FEFEFE" d="M1.70864488,11.5553684 C2.14132202,11.7928743 2.92071395,11.9565735 4.62849921,12.3151979 L4.99145134,12.3908969 C7.48626963,12.915113 8.33443144,15.0261708 9.31631245,17.4703045 C9.55318647,18.0607573 9.80247727,18.6795972 10.0880633,19.3126307 C10.5723178,20.3847187 10.8349805,20.4339231 10.837846,20.4339231 C11.2017532,20.3885037 11.9467602,18.6606724 12.4911884,17.3993367 C12.6889018,16.940411 12.899032,16.452152 13.1263546,15.9459145 C14.577208,12.7107255 17.1923736,12.1912406 18.3089289,11.9688746 C18.4521995,11.9414337 18.5677711,11.9196702 18.650868,11.8941218 L18.9612876,11.8089603 C19.1236609,11.7644871 19.298451,11.7171752 19.3548041,11.6973042 C19.8409689,11.486293 20.1160484,11.2459485 20.1447025,11.1503784 C20.1504334,11.1721419 19.9632265,10.8182487 18.2239217,10.4530007 C13.5542561,9.47364401 12.5418107,5.05565702 12.5007398,4.86830183 C12.1158195,3.41582592 11.3163697,1.76369371 10.7929545,1.74666142 C10.7385117,1.76558619 10.2026797,1.79397334 9.50925016,3.82554713 C7.47194257,9.79725753 4.88065543,10.3167424 3.16713934,10.6611732 L2.94936807,10.7056464 C2.24065629,10.8532596 1.85955656,11.1428085 1.66470857,11.3594971 C1.63605446,11.3916692 1.63605446,11.4295187 1.64083015,11.4569596 C1.64369556,11.4768307 1.65802261,11.5279275 1.70864488,11.5553684"/>
        <path fill="#C4A66A" fill-opacity=".397" d="M12.5005487,4.86792333 C12.3668295,4.36263204 12.1805778,3.83557726 11.9752233,3.35961936 C10.7364104,9.43730845 7.53001491,11.65056 5.13166548,12.4349916 C7.51091217,13.0112508 8.35429829,15.0759429 9.31612142,17.469926 C9.55395058,18.0603788 9.80228624,18.6801649 10.0878723,19.3131984 C10.5721268,20.3843402 10.8347895,20.4335446 10.8376549,20.4335446 C11.2015622,20.3881252 11.9465692,18.6602939 12.4909974,17.3989582 C12.6887108,16.9409788 12.8988409,16.4517735 13.1261636,15.945536 C14.577017,12.710347 17.1921825,12.1908621 18.309693,11.9694423 C18.4520085,11.9420014 18.5685352,11.9192917 18.650677,11.8946895 L18.9610966,11.8085818 C19.1234699,11.7641086 19.29826,11.7167967 19.3546131,11.6978719 C19.841733,11.4859145 20.1158574,11.24557 20.1445115,11.1509462 C20.1502423,11.1717634 19.9630355,10.8178702 18.2237307,10.4526222 C13.5550202,9.47326551 12.5416196,5.05527853 12.5005487,4.86792333"/>
        <path fill="#FEFEFE" d="M18.2166627,21.2135289 C18.1068219,21.1529697 18.0772126,21.003464 18.1612647,20.9097864 C18.2481822,20.8132701 18.4019593,20.701614 18.6684425,20.6457859 C19.1985437,20.5360222 20.0371541,20.4527533 20.7076604,18.4883624 C21.3772116,16.5230253 21.9923199,18.847933 21.9923199,18.847933 C21.9923199,18.847933 22.2989189,20.2587744 23.7516826,20.5634632 C25.049714,20.8350336 24.3180789,21.1955504 24.1471093,21.269357 C24.1270515,21.2778731 23.9570371,21.3223463 23.9045045,21.3384324 C23.6685856,21.408454 22.6972111,21.4463036 22.1871679,22.5836821 C21.6293678,23.8279856 21.3772116,24.7411056 20.9025084,23.6898348 C20.4278052,22.6385639 20.2606562,21.698003 19.3389488,21.5040241 C18.6598463,21.3611421 18.3895425,21.309099 18.2166627,21.2135289"/>
        <path fill="#C4A66A" d="M21.2910582,24.6234882 C20.8010728,24.6234882 20.5670642,24.1049495 20.4667748,23.8835298 C20.3693508,23.6668412 20.2843436,23.45583 20.2031569,23.2542812 C19.8908271,22.475527 19.7055305,22.0648596 19.2394235,21.9664508 L19.1190763,21.9418486 C18.4762689,21.8065365 18.2097857,21.7516547 17.9853284,21.6276975 C17.9843733,21.6267512 17.9843733,21.6267512 17.9834182,21.6267512 C17.8028972,21.52645 17.6787294,21.3523421 17.6443445,21.1489008 C17.6099595,20.9473521 17.669178,20.7458033 17.8048075,20.5944052 C17.9318408,20.4534156 18.1677596,20.2670067 18.5698724,20.1837377 C19.117166,20.0730278 19.7026651,19.954748 20.2547344,18.3357342 C20.3588443,18.0300992 20.6339238,17.2257965 21.2729106,17.2257965 C21.2815068,17.2257965 21.2910582,17.2267428 21.2996544,17.2267428 C21.9644299,17.2494525 22.3082793,18.1767661 22.4544153,18.7274768 C22.4687423,18.7899286 22.7294948,19.8658016 23.8508258,20.1004687 C24.1984957,20.1733291 24.9234448,20.3247272 24.9817082,20.8858466 C25.000811,21.077933 24.9444579,21.4403423 24.3389009,21.7024503 C24.3274392,21.7081277 24.2376564,21.7374611 24.1459632,21.7630096 L24.0494943,21.7895042 C23.9998272,21.804644 23.942519,21.8159989 23.872794,21.8301925 C23.5566436,21.8926442 22.9673239,22.0090315 22.6244297,22.7754846 L22.4190752,23.2438726 C22.0618539,24.0718312 21.8268901,24.618757 21.296789,24.6234882 L21.2910582,24.6234882 Z"/>
        <path fill="#FEFEFE" d="M18.8239389,21.0211587 C18.8583238,21.0287286 18.8936639,21.0362985 18.9309142,21.0438684 L19.0751399,21.074148 C20.2537792,21.3220625 20.6568471,22.3260214 21.0465431,23.2959157 C21.1248643,23.4908408 21.206051,23.6952283 21.2977441,23.9024545 C21.3903924,23.7056369 21.4925921,23.4690773 21.5833302,23.2580662 L21.8345312,22.6846457 C22.3608118,21.5103639 23.2519548,21.1309223 23.8126203,20.9823629 C21.9902186,20.4373296 21.582375,18.656509 21.5651825,18.5770249 C21.4973678,18.3234331 21.3827514,18.0329379 21.2776863,17.835174 C21.2356602,17.9241205 21.185038,18.045239 21.1286849,18.2098844 C20.4600888,20.1704904 19.618613,20.768513 18.8239389,21.0211587"/>
        <path fill="#C4A66A" fill-opacity=".397" d="M23.8122383,20.9826468 C22.2066527,20.5019577 21.70043,19.0655678 21.5905892,18.6757176 C21.1846559,20.2776992 20.3450903,20.9864317 19.6335131,21.2844968 C20.3909369,21.6904331 20.7271452,22.5013594 21.046161,23.2961996 C21.1254374,23.4911247 21.2066241,23.694566 21.2973621,23.9017922 C21.3900104,23.7059208 21.4931652,23.4693612 21.5829481,23.2583501 L21.8341492,22.6839834 C22.3613849,21.5106478 23.2525279,21.1312062 23.8122383,20.9826468"/>
      </g>
    </g>
  </g>
</svg>
