<svg xmlns="http://www.w3.org/2000/svg" width="20" height="17" viewBox="0 0 20 17">
  <path fill="#FD9105" d="M17.6453521,5.79989433 C16.5718112,2.43177916 13.6123201,0 10.1327977,0 C6.66443477,0 3.71610311,2.41381588 2.63363464,5.76396777 C1.16281665,5.87623828 0,7.1898032 0,8.79078061 L0,11.0025096 C0,12.6775855 1.27217944,14.0405495 2.83673697,14.0405495 L4.35665662,14.0405495 C4.7941078,14.0405495 5.14897891,13.6835293 5.14897891,13.2434289 L5.14897891,6.54986131 C5.14897891,6.10976093 4.7941078,5.75274072 4.35665662,5.75274072 L4.31871443,5.75274072 C5.30967526,3.30524369 7.54156902,1.59424118 10.1350296,1.59424118 C12.7284901,1.59424118 14.9603839,3.3074891 15.9513447,5.75274072 L15.6455753,5.75274072 C15.2081241,5.75274072 14.853253,6.10976093 14.853253,6.54986131 L14.853253,13.2456743 C14.853253,13.4477612 14.9313693,13.6318848 15.0541234,13.7711003 C13.8689878,15.1475367 12.1258788,15.9356756 9.9832608,15.9356756 C9.69088271,15.9356756 9.45430198,16.1736891 9.45430198,16.4678378 C9.45430198,16.7619865 9.69088271,17 9.9832608,17 C12.6436782,17 14.8086151,15.9064853 16.1834617,14.0450403 L17.163263,14.0450403 C18.7278206,14.0450403 20,12.6820763 20,11.0070004 L20,8.79302602 C20,7.29309206 18.9800246,6.04688945 17.6453521,5.79989433 Z M3.56210244,9.11187426 L3.56210244,12.4463083 L2.83450508,12.4463083 C2.14261801,12.4463083 1.58018078,11.7973848 1.58018078,11.0025096 L1.58018078,8.79078061 C1.58018078,8.66503764 1.59803593,8.54603091 1.62481866,8.42926958 C1.63151434,8.40232466 1.63821002,8.37537974 1.6471376,8.34843482 C1.67615222,8.24739136 1.71186252,8.15083873 1.75873228,8.06102232 C1.76319607,8.05204068 1.76765986,8.04081363 1.77212365,8.03183199 C1.88818212,7.81627262 2.05334226,7.64113063 2.24974891,7.51987848 C2.33232898,7.47047946 2.41937284,7.43006208 2.51088048,7.40087175 C2.51980806,7.39862634 2.52873563,7.39413552 2.53766321,7.39189011 C2.63363464,7.36269978 2.73183796,7.3469819 2.83450508,7.3469819 L3.56210244,7.3469819 L3.56210244,9.11187426 Z M18.4153554,11.0025096 C18.4153554,11.7996302 17.8529182,12.4463083 17.1610311,12.4463083 L16.4356657,12.4463083 L16.4356657,7.3469819 L17.163263,7.3469819 C17.5069747,7.3469819 17.8194398,7.50865143 18.047093,7.7668736 C18.2903694,8.05204068 18.4220511,8.41579712 18.4175873,8.79078061 L18.4153554,11.0025096 Z"/>
</svg>
