<?xml version="1.0" encoding="UTF-8"?>
<svg width="34px" height="34px" viewBox="0 0 34 34" version="1.1" xmlns="http://www.w3.org/2000/svg" xmlns:xlink="http://www.w3.org/1999/xlink">
    <!-- Generator: Sketch 49.3 (51167) - http://www.bohemiancoding.com/sketch -->
    <title>khzx@3x</title>
    <desc>Created with Sketch.</desc>
    <defs></defs>
    <g id="定稿" stroke="none" stroke-width="1" fill="none" fill-rule="evenodd">
        <g id="首页-copy" transform="translate(-65.000000, -593.000000)" fill="#5B91F8" fill-rule="nonzero">
            <g id="Group-7" transform="translate(13.000000, 559.000000)">
                <g id="Group-4-Copy" transform="translate(42.000000, 34.000000)">
                    <g id="客户中心" transform="translate(10.000000, 0.000000)">
                        <path d="M16.655,16.2307657 C18.14,15.0754743 19.0925,13.2981029 19.0925,11.3022629 C19.0925,7.82527998 16.205,5 12.65375,5 C9.1025,5 6.215,7.82898286 6.215,11.3022629 C6.215,13.32032 7.19375001,15.1125029 8.70500001,16.2677943 C4.77874999,17.8304 2,21.5999086 2,25.9989028 L2,27.0912457 C2,27.6725943 2.47999999,28.1428571 3.07250001,28.1428571 L22.385,28.1428571 C22.9775,28.1428571 23.4575,27.6725943 23.4575,27.0912457 L23.4575,25.9989028 C23.46125,21.5591771 20.63375,17.7674514 16.655,16.2307657 Z M22.34375,9.23236571 L32,9.23236571 L32,11.3318857 L22.34375,11.3318857 L22.34375,9.23236571 Z M22.34375,14.4830171 L32,14.4830171 L32,16.5825371 L22.34375,16.5825371 L22.34375,14.4830171 Z M25.60625,19.7373714 L32,19.7373714 L32,21.8368914 L25.60625,21.8368914 L25.60625,19.7373714 Z" id="Shape"></path>
                    </g>
                </g>
            </g>
        </g>
    </g>
</svg>