<svg xmlns="http://www.w3.org/2000/svg" width="231" height="130" viewBox="0 0 231 130">
  <g fill="none" fill-rule="evenodd" transform="translate(1)">
    <g transform="translate(79 18)">
      <rect width="4.328" height="1.125" x=".5" y="15.375" stroke="#5B91F8" rx=".563"/>
      <path fill="#5B91F8" d="M64.0135118,16.9019312 L25.5737705,16.9019312 C26.5048806,13.1114201 27.6012278,10.694886 28.8628122,9.65232895 C32.0801333,6.99357609 34.0176782,8.18806504 36.22065,7.15586899 C40.4108692,5.19255399 41.0050458,0.442469854 50.7895653,1.12992806 C57.20873,1.58093718 61.6167122,6.83827157 64.0135118,16.9019312 Z" opacity=".2"/>
      <path stroke="#5B91F8" stroke-linecap="round" stroke-width="2" d="M9.59016393,15.8424346 L20.7542344,15.8424346 C20.7542344,12.2883785 21.6004152,9.74612211 23.2927766,8.21566557 C26.0020133,5.76561626 28.4672999,6.90211272 30.4627666,5.86991667 C34.2582952,3.90660167 34.7319872,-0.617026779 43.5948706,0.0704314286 C49.4093931,0.521440543 53.8961108,5.5786359 57.0550237,15.2420175"/>
    </g>
    <path fill="#5B91F8" d="M100.575303,1.13964172 L100.051169,1.06031864 C99.8906411,1.03622049 99.7504208,0.930791081 99.67886,0.779173548 L99.44387,0.286165543 C99.2630341,-0.0953885142 98.737933,-0.0953885142 98.55613,0.286165543 L98.32114,0.779173548 C98.2495792,0.930791081 98.1103259,1.03622049 97.9488307,1.06031864 L97.4246966,1.13964172 C97.0185411,1.20089119 96.8560788,1.71900144 97.1500581,2.01721605 L97.5291366,2.40077829 C97.6461481,2.51926087 97.6993352,2.68895201 97.6712911,2.85563089 L97.5823237,3.39783929 C97.512697,3.81754875 97.9372263,4.13785334 98.3008322,3.94004768 L98.7698452,3.68400483 C98.9139337,3.60568584 99.0860663,3.60568584 99.2301548,3.68400483 L99.6991678,3.94004768 C100.062774,4.13785334 100.487303,3.81754875 100.417676,3.39783929 L100.328709,2.85563089 C100.300665,2.68895201 100.353852,2.51926087 100.470863,2.40077829 L100.849942,2.01721605 C101.143921,1.71900144 100.981459,1.20089119 100.575303,1.13964172" opacity=".4"/>
    <g transform="translate(161 36)">
      <path fill="#5B91F8" d="M31.0777097,11.7100381 L6.4,11.7100381 C6.99775806,9.21408405 7.70159575,7.62285851 8.51151306,6.93636148 C10.5769827,5.18564111 11.820856,5.97218135 13.2351293,5.29250681 C15.9251842,3.99971438 16.3066362,0.871906156 22.5881439,1.3245797 C26.7091467,1.6215576 29.539002,5.08337707 31.0777097,11.7100381 Z" opacity=".2" transform="matrix(-1 0 0 1 37.478 0)"/>
      <path stroke="#5B91F8" stroke-linecap="round" stroke-width="2" d="M0,10.8298648 C1.79069545e-15,8.40031731 0.563961978,6.66243464 1.69188594,5.61621681 C3.49753623,3.94136674 5.14059876,4.71827403 6.4705361,4.01266634 C9.00017755,2.67054712 9.31588347,-0.421798592 15.2228122,0.0481468203 C19.0980713,0.356455983 22.088376,3.81354724 24.1937261,10.4194206" transform="matrix(-1 0 0 1 24.194 0)"/>
    </g>
    <path fill="#5B91F8" d="M11.984127,50.9846349 L10.016381,50.9846349 L10.016381,49.0168889 C10.016381,48.4551111 9.56126984,48 8.99949206,48 C8.43873016,48 7.98361905,48.4551111 7.98361905,49.0168889 L7.98361905,50.9846349 L6.01587302,50.9846349 C5.45409524,50.9846349 5,51.439746 5,52.0005079 C5,52.5612698 5.45409524,53.016381 6.01587302,53.016381 L7.98361905,53.016381 L7.98361905,54.9851429 C7.98361905,55.5459048 8.43873016,56 8.99949206,56 C9.56126984,56 10.016381,55.5459048 10.016381,54.9851429 L10.016381,53.016381 L11.984127,53.016381 C12.5459048,53.016381 13,52.5612698 13,52.0005079 C13,51.439746 12.5459048,50.9846349 11.984127,50.9846349" opacity=".4"/>
    <path fill="#5B91F8" d="M209.603175,68.103873 L206.897524,68.103873 L206.897524,65.3982222 C206.897524,64.6257778 206.271746,64 205.499302,64 C204.728254,64 204.102476,64.6257778 204.102476,65.3982222 L204.102476,68.103873 L201.396825,68.103873 C200.624381,68.103873 200,68.7296508 200,69.5006984 C200,70.271746 200.624381,70.8975238 201.396825,70.8975238 L204.102476,70.8975238 L204.102476,73.6045714 C204.102476,74.375619 204.728254,75 205.499302,75 C206.271746,75 206.897524,74.375619 206.897524,73.6045714 L206.897524,70.8975238 L209.603175,70.8975238 C210.375619,70.8975238 211,70.271746 211,69.5006984 C211,68.7296508 210.375619,68.103873 209.603175,68.103873"/>
    <g transform="translate(40 58)">
      <path stroke="#5B91F8" stroke-width="3" d="M139.829584,60.5076923 C139.242034,60.5076923 138.765731,60.0043064 138.765731,59.3833484 C138.765731,54.3350442 134.87912,50.2266915 130.101,50.2266915 C125.324299,50.2266915 121.436979,54.3342946 121.436979,59.3833484 C121.436979,60.0043064 120.960675,60.5076923 120.373125,60.5076923 L28.6261652,60.5076923 C28.0386153,60.5076923 27.5623119,60.0043064 27.5623119,59.3833484 C27.5623119,54.3350442 23.6757011,50.2266915 18.8982904,50.2266915 C14.1208798,50.2266915 10.234269,54.3342946 10.234269,59.3833484 C10.234269,60.0043064 9.75796561,60.5076923 9.17041565,60.5076923 L4.37456487,60.5076923 C1.96008483,60.5052146 0.00312744125,58.4376554 0,55.8858892 L0,4.62330219 C0.0027359578,2.07112157 1.95969358,0.00289152409 4.37456487,0 L130.037878,0 C131.406703,0 132.720207,0.613891779 133.642922,1.68501675 L147.731887,18.0652085 C148.548126,19.0128008 149.000339,20.2482434 149,21.5296869 L149,55.8858892 C149,58.4344021 147.038254,60.5076923 144.625435,60.5076923 L139.829584,60.5076923 Z"/>
      <path fill="#FFF" d="M144.639224,58.3846154 C145.879496,58.3838015 146.88496,57.3374079 146.886524,56.0458327 L146.886524,21.1258712 C146.886901,20.414235 146.631867,19.7281441 146.171474,19.2022483 L132.07974,3.05903324 C131.559099,2.46376463 130.821987,2.12406731 130.048799,2.12307692 L4.36077522,2.12307692 C3.12011196,2.12429866 2.11464838,3.17135348 2.11347518,4.46333708 L2.11347518,56.0458327 C2.11503994,57.3374079 3.12050334,58.3838015 4.36077522,58.3846154 L8.14529092,58.3846154 C8.68157843,52.7053477 13.2946441,48.2523527 18.8873568,48.2523527 C24.4800694,48.2523527 29.0931351,52.704609 29.6294226,58.3846154 L119.370577,58.3846154 C119.906865,52.7053477 124.51993,48.2523527 130.112643,48.2523527 C135.705355,48.2523527 140.318421,52.7053477 140.854709,58.3846154 L144.639224,58.3846154 Z"/>
      <path fill="#5B91F8" fill-rule="nonzero" d="M134.234476,29.7230769 L113.235587,29.7230769 C111.978184,29.7218085 110.959044,28.6427627 110.957447,27.3110254 L110.957447,9.83957655 C110.959045,7.92365899 112.42511,6.37092328 114.234085,6.36923077 L124.252395,6.36923077 C124.839321,6.36923077 125.40161,6.63322877 125.795792,7.09292296 L135.025014,17.8470042 C135.858421,18.8171081 136.31992,20.0817547 136.319148,21.3933261 L136.319148,27.514396 C136.318349,28.7335666 135.385594,29.7218072 134.234476,29.7230769 Z M124.16055,9.0973438 L114.692022,9.12654886 C114.11295,9.12654886 113.642798,9.62522517 113.642798,10.2378012 L113.642798,26.8598584 C113.642798,26.9168082 113.687607,26.9642664 113.742067,26.9642664 L133.635972,26.9642664 L133.635971,21.2298539 C133.636659,20.5265661 133.389049,19.8484181 132.941773,19.3286048 L124.16055,9.0973438 Z"/>
      <path stroke="#5B91F8" stroke-width="2.5" d="M22.4721119 27.6L12.4002286 27.6C10.805192 27.5978091 9.5126646 26.2002628 9.5106383 24.4756283L9.5106383 10.5551409C9.51266383 8.83076474 10.8048184 7.43332518 12.3996156 7.43076923L22.4721119 7.43076923C24.0671484 7.43296017 25.3596758 8.8305064 25.3617021 10.5551409L25.3617021 24.4756283C25.3596758 26.2002628 24.0671484 27.5978091 22.4721119 27.6zM42.550126 27.6L32.4782428 27.6C30.8832062 27.5978091 29.5906788 26.2002628 29.5886525 24.4756283L29.5886525 10.5551409C29.590678 8.83076474 30.8828326 7.43332518 32.4776298 7.43076923L42.550126 7.43076923C44.1451626 7.43296017 45.43769 8.8305064 45.4397163 10.5551409L45.4397163 24.4756283C45.43769 26.2002628 44.1451626 27.5978091 42.550126 27.6zM62.6281402 27.6L52.5562569 27.6C50.9612204 27.5978091 49.668693 26.2002628 49.6666667 24.4756283L49.6666667 10.5551409C49.6686922 8.83076474 50.9608468 7.43332518 52.555644 7.43076923L62.6281402 7.43076923C64.2231768 7.43296017 65.5157042 8.8305064 65.5177305 10.5551409L65.5177305 24.4756283C65.5157042 26.2002628 64.2231768 27.5978091 62.6281402 27.6zM104.897644 27.6L94.8257605 27.6C93.2307239 27.5978091 91.9381965 26.2002628 91.9361702 24.4756283L91.9361702 10.5551409C91.9381957 8.83076474 93.2303503 7.43332518 94.8251475 7.43076923L104.897644 7.43076923C106.49268 7.43296017 107.785208 8.8305064 107.787234 10.5551409L107.787234 24.4756283C107.785208 26.2002628 106.49268 27.5978091 104.897644 27.6z"/>
      <path fill="#FFF" fill-rule="nonzero" d="M139.489362,58.9153846 C139.489362,64.485598 135.231902,69 129.978723,69 C124.725545,69 120.468085,64.485598 120.468085,58.9153846 C120.468085,53.3451713 124.725545,48.8307692 129.978723,48.8307692 C135.231902,48.8315045 139.489362,53.3459065 139.489362,58.9153846"/>
      <g fill-rule="nonzero" stroke="#5B91F8" transform="translate(9.51 49.892)">
        <path fill="#FFF" stroke-width="3" d="M9.5106383,19.1076923 C4.26653634,19.1076923 0,14.8217726 0,9.55384615 C0,4.28591968 4.26653634,0 9.5106383,0 C14.7553653,0.000627881582 19.0212766,4.28654756 19.0212766,9.55384615 C19.0212766,14.8217726 14.7547403,19.1076923 9.5106383,19.1076923 Z"/>
        <path stroke-width="2" d="M9.5106383,12.7384615 C7.76263561,12.7384615 6.34042553,11.3097902 6.34042553,9.55384615 C6.34042553,7.7979021 7.76263561,6.36923077 9.5106383,6.36923077 C11.2605445,6.37154222 12.6785501,7.79598997 12.6808511,9.55384615 C12.6791242,11.3119416 11.2607827,12.7367269 9.5106383,12.7384615 Z"/>
      </g>
      <g fill-rule="nonzero" stroke="#5B91F8" transform="translate(120.468 49.892)">
        <path fill="#FFF" stroke-width="3" d="M9.5106383,19.1076923 C4.26653634,19.1076923 0,14.8217726 0,9.55384615 C0,4.28591968 4.26653634,0 9.5106383,0 C14.7553653,0.000627881582 19.0212766,4.28654756 19.0212766,9.55384615 C19.0212766,14.8217726 14.7547403,19.1076923 9.5106383,19.1076923 Z"/>
        <path stroke-width="2" d="M9.5106383,12.7384615 C7.76263561,12.7384615 6.34042553,11.3097902 6.34042553,9.55384615 C6.34042553,7.7979021 7.76263561,6.36923077 9.5106383,6.36923077 C11.2605445,6.37154222 12.6785501,7.79598997 12.6808511,9.55384615 C12.6791242,11.3119416 11.2607827,12.7367269 9.5106383,12.7384615 Z"/>
      </g>
      <path stroke="#5B91F8" stroke-width="2.5" d="M84.4344775,55.2 L73.0194232,55.2 C71.211785,55.1975702 69.7469772,53.6476734 69.7446809,51.7350316 L69.7446809,9.83419918 C69.7469764,7.92184382 71.2113616,6.37206535 73.0187285,6.36923077 L84.4344775,6.36923077 C86.2421157,6.37166055 87.7069235,7.92155732 87.7092199,9.83419918 L87.7092199,51.7350316 C87.7069235,53.6476734 86.2421157,55.1975702 84.4344775,55.2 Z"/>
    </g>
    <g fill="#5B91F8" opacity=".7" transform="translate(48 1)">
      <rect width="2.095" height="6.3" x="10.429" rx="1.048"/>
      <rect width="2.095" height="6.3" x="3.095" y="7.35" rx="1.048" transform="rotate(90 4.143 10.5)"/>
      <rect width="2.095" height="6.3" x="18.81" y="7.35" rx="1.048" transform="rotate(90 19.857 10.5)"/>
      <rect width="2.095" height="6.3" x="10.429" y="14.7" rx="1.048"/>
      <rect width="2.095" height="6.3" x="4.87" y="12.538" rx="1.048" transform="rotate(40 5.918 15.688)"/>
      <rect width="2.095" height="6.3" x="16.394" y="12.538" rx="1.048" transform="scale(-1 1) rotate(40 0 -32.233)"/>
      <rect width="2.095" height="6.3" x="4.87" y="2.038" rx="1.048" transform="scale(1 -1) rotate(40 20.172 0)"/>
      <rect width="2.095" height="6.3" x="16.394" y="2.038" rx="1.048" transform="rotate(-140 17.442 5.188)"/>
    </g>
    <path fill="#5B91F8" d="M2.5,127 L16.462963,127 C17.2913901,127 17.962963,127.671573 17.962963,128.5 C17.962963,129.328427 17.2913901,130 16.462963,130 L2.5,130 C1.67157288,130 1,129.328427 1,128.5 C1,127.671573 1.67157288,127 2.5,127 Z M139.263889,127 L148.986111,127 C149.814538,127 150.486111,127.671573 150.486111,128.5 C150.486111,129.328427 149.814538,130 148.986111,130 L139.263889,130 C138.435462,130 137.763889,129.328427 137.763889,128.5 C137.763889,127.671573 138.435462,127 139.263889,127 Z M157.287037,127 L207.296296,127 C208.124723,127 208.796296,127.671573 208.796296,128.5 C208.796296,129.328427 208.124723,130 207.296296,130 L157.287037,130 C156.45861,130 155.787037,129.328427 155.787037,128.5 C155.787037,127.671573 156.45861,127 157.287037,127 Z M218.777778,127 L228.5,127 C229.328427,127 230,127.671573 230,128.5 C230,129.328427 229.328427,130 228.5,130 L218.777778,130 C217.949351,130 217.277778,129.328427 217.277778,128.5 C217.277778,127.671573 217.949351,127 218.777778,127 Z M37.4861111,127 L127.782407,127 C128.610835,127 129.282407,127.671573 129.282407,128.5 C129.282407,129.328427 128.610835,130 127.782407,130 L37.4861111,130 C36.657684,130 35.9861111,129.328427 35.9861111,128.5 C35.9861111,127.671573 36.657684,127 37.4861111,127 Z M23.7037037,127 L28.125,127 C28.9534271,127 29.625,127.671573 29.625,128.5 C29.625,129.328427 28.9534271,130 28.125,130 L23.7037037,130 C22.8752766,130 22.2037037,129.328427 22.2037037,128.5 C22.2037037,127.671573 22.8752766,127 23.7037037,127 Z"/>
    <rect width="19" height="2" x="13" y="82" fill="#5B91F8" rx="1"/>
    <circle cx="4" cy="96" r="4" fill="#FFF" stroke="#5B91F8" stroke-width="2"/>
    <circle cx="15" cy="108" r="3" fill="#FFF" stroke="#5B91F8" stroke-width="2" opacity=".5"/>
    <circle cx="198" cy="103" r="3" fill="#FFF" stroke="#5B91F8" stroke-width="2" opacity=".5"/>
  </g>
</svg>
