<?xml version="1.0" encoding="UTF-8"?>
<svg width="16px" height="16px" viewBox="0 0 16 16" version="1.1" xmlns="http://www.w3.org/2000/svg" xmlns:xlink="http://www.w3.org/1999/xlink">
    <!-- Generator: Sketch 49.3 (51167) - http://www.bohemiancoding.com/sketch -->
    <title>lxdh@3x</title>
    <desc>Created with Sketch.</desc>
    <defs></defs>
    <g id="定稿" stroke="none" stroke-width="1" fill="none" fill-rule="evenodd">
        <g id="首页-copy" transform="translate(-219.000000, -349.000000)" fill-rule="nonzero" stroke="#B0B0B0">
            <g id="Group" transform="translate(13.000000, 174.000000)">
                <g id="Group-25-Copy" transform="translate(206.000000, 175.000000)">
                    <path d="M13.8878325,12.6751134 L13.3243517,13.236787 C13.0942084,13.466416 12.8082025,13.6496858 12.4723414,13.7825914 C12.1031658,13.9295693 11.6884141,13.9999997 11.2452167,13.9999997 C9.54343177,14.0007815 6.85427989,12.4140753 5.07224651,10.637118 C2.82563361,8.39678785 1.47954212,5.31411884 2.19094279,3.53103057 C2.29490503,3.26993761 2.43923149,3.0378946 2.61098862,2.83405117 L2.61052231,2.8331322 L2.64703253,2.77419564 C2.6632852,2.74755965 2.6822535,2.72347481 2.70364943,2.70211939 L3.29493121,2.11300062 C3.44478496,1.96233313 3.688287,1.96233313 3.83809959,2.11300062 L4.10432795,2.37830431 L6.42357727,4.69149249 C6.57340358,4.8403632 6.57340358,5.08287132 6.42311095,5.23259243 L5.80302697,5.85177611 L5.38134901,6.2723695 C5.38134901,6.2723695 5.16068301,7.68263633 6.73148652,9.24883748 C8.30223518,10.8143391 9.71010053,10.6010044 9.71010053,10.6010044 L10.7582812,9.55548044 C10.9081076,9.40575935 11.1519388,9.40575935 11.3013262,9.55548044 L13.8873662,12.1331494 C14.0374668,12.2830076 14.0374668,12.5253649 13.8878325,12.6751134 Z" id="Shape"></path>
                </g>
            </g>
        </g>
    </g>
</svg>