<?xml version="1.0" standalone="no"?><!DOCTYPE svg PUBLIC "-//W3C//DTD SVG 1.1//EN" "http://www.w3.org/Graphics/SVG/1.1/DTD/svg11.dtd"><svg t="1540446267478" class="icon" style="" viewBox="0 0 1024 1024" version="1.1" xmlns="http://www.w3.org/2000/svg" p-id="4629" xmlns:xlink="http://www.w3.org/1999/xlink" width="64" height="64"><defs><style type="text/css"></style></defs><path d="M960 576v-2q-0.06-1-0.15-2v-0.27c-0.06-0.56-0.13-1.13-0.21-1.7l-0.06-0.35c-0.09-0.54-0.18-1.07-0.29-1.61 0-0.11-0.05-0.22-0.07-0.34-0.12-0.53-0.24-1.07-0.37-1.6 0-0.09 0-0.18-0.08-0.28-0.14-0.55-0.3-1.09-0.46-1.64l-0.06-0.17c-0.18-0.58-0.37-1.15-0.58-1.72a39.6 39.6 0 0 0-6.69-11.65v-0.06c-0.39-0.47-0.78-0.93-1.19-1.38-0.22-0.24-0.45-0.47-0.67-0.7s-0.42-0.45-0.64-0.67L668.14 267.57a39.88 39.88 0 0 0-56.39 0l-0.18 0.18a39.88 39.88 0 0 0 0 56.39L823.43 536H104a40 40 0 0 0 0 80h817.87A40 40 0 0 0 960 577.89v-1.12-0.77z" fill="#D8D8D8" p-id="4630"></path></svg>