<?xml version="1.0" encoding="UTF-8"?>
<svg width="16px" height="16px" viewBox="0 0 16 16" version="1.1" xmlns="http://www.w3.org/2000/svg" xmlns:xlink="http://www.w3.org/1999/xlink">
    <!-- Generator: Sketch 49.3 (51167) - http://www.bohemiancoding.com/sketch -->
    <title>sj@3x</title>
    <desc>Created with Sketch.</desc>
    <defs></defs>
    <g id="定稿" stroke="none" stroke-width="1" fill="none" fill-rule="evenodd">
        <g id="首页-copy" transform="translate(-31.000000, -378.000000)" fill="#B0B0B0" fill-rule="nonzero" stroke="#B0B0B0" stroke-width="0.2">
            <g id="Group" transform="translate(13.000000, 174.000000)">
                <g id="Group-26" transform="translate(18.000000, 204.000000)">
                    <g id="Group-12">
                        <g id="sj">
                            <path d="M8.00000671,14 C4.68622809,14 2,11.3135871 2,7.99998658 C2,4.68634586 4.68622809,2 8.00000671,2 C11.3136646,2 14,4.68634586 14,8 C14,11.3136005 11.3136646,14 8.00000671,14 Z M8.00000671,2.67993622 C5.06182984,2.67993622 2.67993698,5.06177274 2.67993698,8 C2.67993698,10.9381736 5.06182984,13.3200504 8.00000671,13.3200504 C10.9381836,13.3200504 13.3200496,10.9381736 13.3200496,8 C13.3200496,5.06182641 10.9381836,2.67993622 8.00000671,2.67993622 Z M11.0734303,9.50439125 C10.9907982,9.68142345 10.77983,9.75746692 10.6027976,9.67451285 L7.78332217,8.73193347 C7.64846463,8.66895976 7.57338722,8.53199564 7.58096876,8.39198549 C7.57926459,8.3778154 7.57275654,8.36604725 7.57275654,8.35146118 L7.57275654,4.45663205 C7.57275654,4.26090768 7.73109674,4.10251398 7.92682133,4.10251398 C8.1225325,4.10251398 8.2808727,4.26090768 8.2808727,4.45663205 L8.2808727,8.15651509 L10.9029999,9.03342361 C11.0803543,9.11640452 11.1564113,9.32702359 11.0734303,9.50439125 Z" id="Shape"></path>
                        </g>
                    </g>
                </g>
            </g>
        </g>
    </g>
</svg>