<?xml version="1.0" encoding="UTF-8"?>
<svg width="9px" height="11px" viewBox="0 0 9 11" version="1.1" xmlns="http://www.w3.org/2000/svg" xmlns:xlink="http://www.w3.org/1999/xlink">
    <!-- Generator: Sketch 49.3 (51167) - http://www.bohemiancoding.com/sketch -->
    <title>ss_dw@3x</title>
    <desc>Created with Sketch.</desc>
    <defs></defs>
    <g id="定稿" stroke="none" stroke-width="1" fill="none" fill-rule="evenodd">
        <g id="包车选择酒店-要去哪里" transform="translate(-15.000000, -154.000000)" fill="#616161" fill-rule="nonzero">
            <g id="Group-4" transform="translate(0.000000, 125.000000)">
                <g id="Group" transform="translate(15.000000, 15.000000)">
                    <g id="Group-Copy">
                        <g id="ss_dw" transform="translate(0.000000, 14.000000)">
                            <path d="M4.5021005,0 C2.0154263,0 0,2.04541492 0,4.56565829 C0,5.72587264 0.429172197,6.77865972 1.12973269,7.58436413 C1.14866676,7.6208894 1.17391219,7.65741466 1.20336518,7.68964284 L4.12762672,10.796439 C4.14235321,10.8157759 4.15707971,10.8372614 4.17390999,10.8544497 C4.21808948,10.8995692 4.26858033,10.9317974 4.32327875,10.9554314 C4.49158157,11.0349275 4.69564874,11.009145 4.83239479,10.8694896 C4.87026292,10.8308157 4.89971591,10.7856963 4.92075377,10.7384283 L7.79031689,7.68964284 C7.8176661,7.6638603 7.83870395,7.63163212 7.85763802,7.59940395 C8.56661366,6.79369954 8.99999342,5.73231827 8.99999342,4.56780684 C9.00420099,2.04541492 6.9887747,0 4.5021005,0 Z M4.49999671,6.42200124 C3.38078294,6.42200124 2.4719477,5.5002754 2.4719477,4.3658436 C2.4719477,3.2314118 3.38078294,2.30968596 4.49999671,2.30968596 C5.61921048,2.30968596 6.52804572,3.2314118 6.52804572,4.3658436 C6.52804572,5.5002754 5.61921048,6.42200124 4.49999671,6.42200124 Z" id="Shape"></path>
                        </g>
                    </g>
                </g>
            </g>
        </g>
    </g>
</svg>