<?xml version="1.0" encoding="UTF-8"?>
<svg width="34px" height="34px" viewBox="0 0 34 34" version="1.1" xmlns="http://www.w3.org/2000/svg" xmlns:xlink="http://www.w3.org/1999/xlink">
    <!-- Generator: Sketch 49.3 (51167) - http://www.bohemiancoding.com/sketch -->
    <title>wyyc@3x</title>
    <desc>Created with Sketch.</desc>
    <defs></defs>
    <g id="定稿" stroke="none" stroke-width="1" fill="none" fill-rule="evenodd">
        <g id="首页-copy" transform="translate(-171.000000, -588.000000)" fill="#FFFFFF" fill-rule="nonzero">
            <g id="Group-7" transform="translate(13.000000, 559.000000)">
                <g id="Group-4" transform="translate(149.000000, 20.000000)">
                    <g id="Group-3">
                        <g id="拼车包车" transform="translate(9.000000, 9.000000)">
                            <g id="Group-28" transform="translate(3.000000, 3.000000)">
                                <path d="M7.92891375,4 L19.0705819,4 C19.5840948,4 20,4.44745495 20,5.00039456 C20,5.55359724 19.584347,5.99999996 19.0705819,6 L7.92891375,6 C7.41514854,6 7.00000004,5.55359728 7,5.00039456 C7.00025223,4.44771798 7.4151485,4 7.92891375,4" id="Shape"></path>
                                <path d="M20.2503929,0 L6.75013097,0 C3.02814267,0 0,3.03574059 0,6.76720876 L0,23.1991361 C0,24.4655738 0.813022629,25.5449934 1.94402514,25.9391035 C2.10615821,27.6537747 3.55068779,29 5.30245823,29 C7.00079549,29 8.40970296,27.7381361 8.64412799,26.0999492 L18.3553482,26.0999492 C18.5900351,27.7381362 19.9984187,29 21.6959702,29 C23.4477406,29 24.8922702,27.6537747 25.0564987,25.9391035 C26.1864535,25.5449934 27,24.4655738 27,23.1991361 L27,6.76695465 C27,3.03574059 23.9715954,0 20.2503929,0 Z M6.75013097,22.2327913 C5.68487226,22.2327913 4.82182147,21.3675785 4.82182147,20.3001016 C4.82182147,19.2326248 5.68487226,18.3663956 6.75013097,18.3663956 C7.81486584,18.3663956 8.67791663,19.2326248 8.67791663,20.3001016 C8.67791663,21.3675785 7.81486584,22.2327913 6.75013097,22.2327913 Z M20.2503929,22.2327913 C19.1848722,22.2327913 18.3207737,21.3675785 18.3207737,20.3001016 C18.3207737,19.2326248 19.1848722,18.3663956 20.2503929,18.3663956 C21.3159135,18.3663956 22.1789643,19.2326248 22.1789643,20.3001016 C22.1789643,21.3675785 21.3159135,22.2327913 20.2503929,22.2327913 Z M25.0709047,14.4997459 L1.92857144,14.4997459 L1.92857144,13.5773605 C1.92857144,13.5623686 1.92752372,13.5473766 1.92752372,13.5334011 L1.92752372,6.76695465 C1.92752372,4.09737313 4.0879009,1.93345193 6.74986903,1.93345193 L20.250131,1.93345193 C22.912623,1.93345193 25.0706428,4.09762724 25.0706428,6.76695465 L25.0706428,14.4997459 L25.0709047,14.4997459 Z" id="Shape"></path>
                            </g>
                        </g>
                    </g>
                </g>
            </g>
        </g>
    </g>
</svg>