<?xml version="1.0" encoding="UTF-8"?>
<svg width="18px" height="18px" viewBox="0 0 18 18" version="1.1" xmlns="http://www.w3.org/2000/svg" xmlns:xlink="http://www.w3.org/1999/xlink">
    <!-- Generator: Sketch 49.3 (51167) - http://www.bohemiancoding.com/sketch -->
    <title>xc@3x</title>
    <desc>Created with Sketch.</desc>
    <defs></defs>
    <g id="定稿" stroke="none" stroke-width="1" fill="none" fill-rule="evenodd">
        <g id="首页-copy" transform="translate(-179.000000, -277.000000)" fill="#666666" fill-rule="nonzero">
            <g id="详情" transform="translate(179.000000, 277.000000)">
                <g id="Group-27" transform="translate(4.000000, 3.000000)">
                    <path d="M10,2.70830768 L7.066,0 L7,0 L7,1.66153846 C7,1.95531672 7.1264282,2.2370626 7.35147186,2.4447952 C7.57651551,2.65252781 7.88174021,2.76923077 8.2,2.76923077 L10,2.76923077 L10,2.70830768 Z" id="Shape"></path>
                    <path d="M6.25,2.4 L6.25,0 L1.25,0 C0.918479382,0 0.60053699,0.12642821 0.366116517,0.351471866 C0.131696044,0.576515522 -3.88500732e-09,0.88174022 0,1.20000001 L0,10.8 C-3.88500732e-09,11.1182598 0.131696044,11.4234845 0.366116517,11.6485281 C0.60053699,11.8735718 0.918479382,12 1.25,12 L8.75,12 C9.08152062,12 9.39946301,11.8735718 9.63388348,11.6485281 C9.86830396,11.4234845 10,11.1182598 10,10.8 L10,3.6 L7.50000001,3.6 C7.16847939,3.6 6.850537,3.47357179 6.61611652,3.24852814 C6.38169605,3.02348449 6.25,2.71825979 6.25,2.4 Z M7.8125,9.89999999 L2.1875,9.89999999 C2.01491102,9.89999999 1.875,9.76568542 1.875,9.6 C1.875,9.43431457 2.01491102,9.3 2.1875,9.3 L7.8125,9.3 C7.98508898,9.3 8.125,9.43431457 8.125,9.6 C8.125,9.76568542 7.98508898,9.89999999 7.8125,9.89999999 Z M7.8125,8.09999999 L2.1875,8.09999999 C2.01491102,8.09999999 1.875,7.96568542 1.875,7.8 C1.875,7.63431458 2.01491102,7.5 2.1875,7.5 L7.8125,7.5 C7.98508898,7.5 8.125,7.63431458 8.125,7.8 C8.125,7.96568542 7.98508898,8.09999999 7.8125,8.09999999 Z M8.125,6 C8.125,6.16568542 7.98508898,6.3 7.8125,6.3 L2.1875,6.3 C2.01491102,6.3 1.875,6.16568542 1.875,6 C1.875,5.83431458 2.01491102,5.7 2.1875,5.7 L7.8125,5.7 C7.98508898,5.7 8.125,5.83431458 8.125,6 Z" id="Shape"></path>
                </g>
            </g>
        </g>
    </g>
</svg>