<svg xmlns="http://www.w3.org/2000/svg" width="11" height="15" viewBox="0 0 11 15">
  <g fill="#FD9105" fill-rule="evenodd" transform="translate(1 1)">
    <path fill-rule="nonzero" stroke="#FFF" stroke-width=".1" d="M0.00807174888,10.7495082 C0.00807174888,8.96786885 0.00807174888,7.1947541 0.00807174888,5.41311475 C0.0161434978,5.36196721 0.0242152466,5.31081967 0.0322869955,5.26819672 C0.129147982,4.71409836 0.403587444,4.28786885 0.86367713,4.00655738 C1.11390135,3.85311475 1.39641256,3.77639344 1.68699552,3.77639344 C1.71121076,3.77639344 1.73542601,3.77639344 1.767713,3.77639344 C1.767713,3.74229508 1.767713,3.7252459 1.767713,3.69967213 C1.767713,3.02622951 1.767713,2.35278689 1.767713,1.68786885 C1.767713,1.58557377 1.77578475,1.48327869 1.79192825,1.38098361 C1.90493274,0.681967213 2.43766816,0.127868852 3.10762332,0.0170491803 C3.14798206,0.00852459016 3.18834081,0 3.22869955,0 C4.08430493,0 4.93183857,0 5.78744395,0 C5.7955157,0 5.81165919,0.00852459016 5.81973094,0.00852459016 C5.93273543,0.0170491803 6.04573991,0.0426229508 6.15067265,0.0767213115 C6.8044843,0.298360656 7.24843049,0.946229508 7.24843049,1.67934426 C7.24843049,2.35278689 7.24843049,3.0347541 7.24843049,3.70819672 C7.24843049,3.73377049 7.24843049,3.75081967 7.24843049,3.77639344 C7.27264574,3.77639344 7.28878924,3.77639344 7.30493274,3.77639344 C7.40179372,3.78491803 7.49865471,3.78491803 7.58744395,3.80196721 C8.14439462,3.9042623 8.55605381,4.21967213 8.82242152,4.74819672 C8.92735426,4.95278689 8.9838565,5.17442623 8.99192825,5.40459016 C8.99192825,5.42163934 9,5.43016393 9,5.44721311 C9,7.20327869 9,8.95081967 9,10.7068852 C8.99192825,10.775082 8.99192825,10.8091803 8.9838565,10.8432787 C8.93542601,11.1927869 8.80627803,11.4996721 8.58834081,11.7639344 C8.2573991,12.1560656 7.84573991,12.3606557 7.35336323,12.3691803 C7.27264574,12.3691803 7.19192825,12.3691803 7.11121076,12.3691803 C7.09506726,12.3691803 7.07892377,12.3691803 7.05470852,12.3691803 C7.05470852,12.4118033 7.05470852,12.4459016 7.05470852,12.48 C7.05470852,12.7272131 6.90134529,12.9232787 6.67533632,12.9829508 C6.65919283,12.9914754 6.63497758,13 6.61883408,13 C6.57847534,13 6.54618834,13 6.5058296,13 C6.4896861,12.9914754 6.4735426,12.9829508 6.4573991,12.9829508 C6.27174888,12.9403279 6.06995516,12.7613115 6.07802691,12.4629508 C6.07802691,12.437377 6.07802691,12.4032787 6.07802691,12.3777049 C6.02152466,12.3691803 2.94618834,12.3691803 2.9058296,12.3777049 C2.9058296,12.4118033 2.9058296,12.4459016 2.9058296,12.48 C2.91390135,12.6931148 2.76860987,12.9147541 2.53452915,12.9744262 C2.5103139,12.9829508 2.4941704,12.9914754 2.47802691,12.9914754 C2.43766816,12.9914754 2.40538117,12.9914754 2.36502242,12.9914754 C2.34080717,12.9829508 2.32466368,12.9744262 2.30044843,12.9744262 C2.21973094,12.9488525 2.1470852,12.9062295 2.08251121,12.8465574 C1.98565022,12.7442623 1.93721973,12.6163934 1.92914798,12.4714754 C1.92914798,12.437377 1.92914798,12.4032787 1.92914798,12.3606557 C1.832287,12.3606557 1.74349776,12.3606557 1.65470852,12.3606557 C1.47713004,12.3606557 1.30762332,12.3265574 1.14618834,12.2754098 C0.532735426,12.0622951 0.0807174888,11.482623 0,10.8006557 C0.0242152466,10.7921311 0.0161434978,10.775082 0.00807174888,10.7495082 Z M4.52017937,11.6701639 C5.45650224,11.6701639 6.39282511,11.6701639 7.32107623,11.6701639 C7.40179372,11.6701639 7.47443946,11.6616393 7.5470852,11.6445902 C7.84573991,11.5508197 8.06367713,11.3547541 8.20896861,11.0819672 C8.2896861,10.9370492 8.33004484,10.7836066 8.33004484,10.6131148 C8.33004484,8.93377049 8.33004484,7.24590164 8.33004484,5.56655738 C8.33004484,5.50688525 8.32197309,5.43868852 8.31390135,5.37901639 C8.2573991,5.10622951 8.12017937,4.89311475 7.91838565,4.72262295 C7.74080717,4.57770492 7.53901345,4.50098361 7.31300448,4.50098361 C7.1838565,4.50098361 7.05470852,4.50098361 6.92556054,4.50098361 C6.40896861,4.50098361 5.89237668,4.50098361 5.367713,4.50098361 C4.76233184,4.50098361 4.16502242,4.50098361 3.55964126,4.50098361 C3.05919283,4.50098361 2.55874439,4.50098361 2.05829596,4.50098361 C1.95336323,4.50098361 1.84843049,4.50098361 1.75156951,4.50098361 C1.69506726,4.50098361 1.63856502,4.5095082 1.59013453,4.51803279 C1.26726457,4.60327869 1.00896861,4.79081967 0.831390135,5.08065574 C0.734529148,5.23409836 0.686098655,5.39606557 0.694170404,5.57508197 C0.694170404,5.72852459 0.694170404,5.88196721 0.702242152,6.03540984 C0.702242152,6.8452459 0.710313901,7.65508197 0.710313901,8.47344262 C0.710313901,9.07016393 0.71838565,9.65836066 0.71838565,10.255082 C0.71838565,10.4 0.71838565,10.5363934 0.71838565,10.6813115 C0.71838565,10.7836066 0.734529148,10.8859016 0.782959641,10.9796721 C0.855605381,11.1416393 0.952466368,11.2780328 1.08161435,11.397377 C1.27533632,11.5763934 1.50134529,11.6616393 1.75964126,11.6616393 C2.67174888,11.6616393 3.59192825,11.6701639 4.52017937,11.6701639 Z M6.58654709,3.77639344 C6.58654709,3.75081967 6.58654709,3.73377049 6.58654709,3.71672131 C6.58654709,3.29901639 6.58654709,2.87278689 6.58654709,2.45508197 C6.58654709,2.19934426 6.58654709,1.95213115 6.58654709,1.69639344 C6.58654709,1.50032787 6.53811659,1.32131148 6.43318386,1.16786885 C6.23946188,0.869508197 5.97309417,0.707540984 5.62600897,0.707540984 C4.87533632,0.707540984 4.13273543,0.707540984 3.38206278,0.707540984 C3.18834081,0.707540984 3.01883408,0.758688525 2.86547085,0.878032787 C2.59910314,1.08262295 2.44573991,1.35540984 2.44573991,1.72196721 C2.45381166,2.3442623 2.44573991,2.97508197 2.44573991,3.59737705 C2.44573991,3.64 2.44573991,3.68262295 2.44573991,3.7252459 C2.44573991,3.74229508 2.44573991,3.75081967 2.44573991,3.76786885 C3.83408072,3.77639344 5.20627803,3.77639344 6.58654709,3.77639344 Z"/>
    <path d="M3.34999999,5.64489746 C3.54329965,5.64489746 3.69999999,5.8015978 3.69999999,5.99489745 L3.69999999,10.2948975 C3.69999999,10.4881971 3.54329965,10.6448975 3.34999999,10.6448975 C3.15670033,10.6448975 3,10.4881971 3,10.2948975 L3,5.99489745 C3,5.8015978 3.15670033,5.64489746 3.34999999,5.64489746 Z M6,5.59985352 C6.19329966,5.59985352 6.34999999,5.75655385 6.34999999,5.94985351 L6.34999999,10.2498535 C6.34999999,10.4431532 6.19329966,10.5998535 6,10.5998535 C5.80670034,10.5998535 5.65000001,10.4431532 5.65000001,10.2498535 L5.65000001,5.94985351 C5.65000001,5.75655385 5.80670034,5.59985352 6,5.59985352 Z"/>
  </g>
</svg>
